<svg xmlns="http://www.w3.org/2000/svg" xmlns:xlink="http://www.w3.org/1999/xlink" version="1.1" x="0" y="0" width="349.229" height="232.908" viewBox="0, 0, 349.229, 232.908">
  <defs>
    <linearGradient id="Gradient_1" gradientUnits="userSpaceOnUse" x1="635.628" y1="41.655" x2="325.372" y2="552.345">
      <stop offset="0" stop-color="#FFFFFF"/>
      <stop offset="1" stop-color="#13CFFF" stop-opacity="0.25"/>
    </linearGradient>
    <clipPath id="Clip_1">
      <path d="M874,0 L884,0 L884,594 L874,594 z"/>
    </clipPath>
    <linearGradient id="Gradient_2" gradientUnits="userSpaceOnUse" x1="616.703" y1="32.424" x2="295.297" y2="561.576">
      <stop offset="0" stop-color="#FFFFFF"/>
      <stop offset="1" stop-color="#13CFFF" stop-opacity="0.25"/>
    </linearGradient>
    <clipPath id="Clip_2">
      <path d="M864,0 L874,0 L874,594 L864,594 z"/>
    </clipPath>
    <linearGradient id="Gradient_3" gradientUnits="userSpaceOnUse" x1="597.777" y1="23.192" x2="265.223" y2="570.808">
      <stop offset="0" stop-color="#FFFFFF"/>
      <stop offset="1" stop-color="#13CFFF" stop-opacity="0.4"/>
    </linearGradient>
  </defs>
  <g id="Layer_1">
    <g id="Layer_1">
      <g clip-path="url(#Clip_1)" opacity="0.051">
        <path d="M.9913.7569C.9913.7569.0081.7359.0081.7359.0041.7358.0007.7324.0007.7282.0007.7282.0007.2706.0007.2706.0007.2664.0041.263.0081.2629.0081.2629.9913.242.9913.242.9961.2419 1.0001.2455 1.0001.25 1.0001.25 1.0001.7489 1.0001.7489 1.0001.7534.9961.757.9913.7569Z" fill="url(#Gradient_1)"/>
      </g>
      <g clip-path="url(#Clip_2)" opacity="0.099">
        <path d="m1.7442.934-2.166-.0462c-.009-.0002-.0163-.0078-.0163-.0169v-1.0084c0-.0091.0073-.0167.0163-.0169l2.166-.0461c.0107-.0002.0194.0077.0194.0176v1.0992c0 .0099-.0087.0178-.0194.0176z" fill="url(#Gradient_2)"/>
      </g>
      <!--<path d="M-1,43.259 C-1,37.888 3.244,33.476 8.611,33.267 L853.611,0.404 C859.282,0.183 864,4.721 864,10.396 L864,583.604 C864,589.279 859.282,593.817 853.611,593.596 L8.611,560.733 C3.244,560.524 -1,556.112 -1,550.741 L-1,43.259 z" fill="url(#Gradient_3)" opacity="0.154"/>-->
    </g>
  </g>
</svg>