<svg width="22" height="30" viewBox="0 0 22 30" fill="none" xmlns="http://www.w3.org/2000/svg">
<path d="M11.8382 7.46153C11.8382 7.00588 11.4415 6.67307 11 6.67307C10.5585 6.67307 10.1618 7.00588 10.1618 7.46153V9.61537C10.1618 10.071 10.5585 10.4038 11 10.4038C11.4415 10.4038 11.8382 10.071 11.8382 9.61537V7.46153Z" fill="white" stroke="white" stroke-width="0.5"/>
<path d="M21.25 10.1538C21.25 4.94035 16.6392 0.75 11 0.75C5.36084 0.75 0.75 4.94035 0.75 10.1538V19.8462C0.75 25.0596 5.36084 29.25 11 29.25C16.6392 29.25 21.25 25.0596 21.25 19.8462V10.1538ZM2.42647 10.1538C2.42647 5.85165 6.24387 2.32692 11 2.32692C15.7561 2.32692 19.5735 5.85165 19.5735 10.1538V19.8462C19.5735 24.1484 15.7561 27.6731 11 27.6731C6.24387 27.6731 2.42647 24.1484 2.42647 19.8462V10.1538Z" fill="white" stroke="white" stroke-width="0.5"/>
</svg>
