<svg width="805" height="521" viewBox="0 0 805 521" fill="none" xmlns="http://www.w3.org/2000/svg">
<path d="M798.482 1H6.51822C2.91831 1 0 3.71765 0 7.07004V514.93C0 518.282 2.91831 521 6.51822 521H798.482C802.082 521 805 518.282 805 514.93V7.07004C805 3.71765 802.082 1 798.482 1Z" fill="#11171D"/>
<path d="M798.482 2.01166H6.51821C3.51829 2.01166 1.08636 4.27637 1.08636 7.07002V514.93C1.08636 517.724 3.51829 519.988 6.51821 519.988H798.482C801.482 519.988 803.914 517.724 803.914 514.93V7.07002C803.914 4.27637 801.482 2.01166 798.482 2.01166Z" stroke="#191F26" stroke-width="2"/>
<g filter="url(#filter0_d_29_124)">
<path d="M785.236 108H21.5183C17.9184 108 15.0001 110.718 15.0001 114.07V495.471C15.0001 498.823 17.9184 501.541 21.5183 501.541H785.236C788.836 501.541 791.755 498.823 791.755 495.471V114.07C791.755 110.718 788.836 108 785.236 108Z" fill="#11171D"/>
<path d="M785.15 110H21.4319C18.432 110 16.0001 112.265 16.0001 115.058V496.459C16.0001 499.253 18.432 501.518 21.4319 501.518H785.15C788.15 501.518 790.582 499.253 790.582 496.459V115.058C790.582 112.265 788.15 110 785.15 110Z" stroke="#191F26" stroke-width="2"/>
</g>
<g filter="url(#filter1_d_29_124)">
<path d="M15 56L791 56" stroke="#191F26" stroke-width="2" stroke-linecap="round"/>
</g>
<g filter="url(#filter2_d_29_124)">
<path d="M368.472 36.19C367.205 36.19 366.116 35.715 365.204 34.765C364.292 33.815 363.836 32.523 363.836 30.889C363.836 29.2677 364.286 27.9883 365.185 27.051C366.097 26.101 367.193 25.626 368.472 25.626C369.739 25.626 370.796 26.1327 371.645 27.146V22.13H374.533V36H371.645V34.537C370.834 35.639 369.777 36.19 368.472 36.19ZM367.446 32.96C367.927 33.4793 368.516 33.739 369.213 33.739C369.91 33.739 370.492 33.4793 370.961 32.96C371.442 32.428 371.683 31.7377 371.683 30.889C371.683 30.0657 371.442 29.3943 370.961 28.875C370.492 28.343 369.91 28.077 369.213 28.077C368.516 28.077 367.927 28.343 367.446 28.875C366.965 29.3943 366.724 30.0783 366.724 30.927C366.724 31.7503 366.965 32.428 367.446 32.96ZM377.113 36V25.816H380.001V27.868C380.66 26.31 381.743 25.5627 383.25 25.626V28.647H383.098C382.11 28.647 381.344 28.951 380.799 29.559C380.267 30.1543 380.001 31.0473 380.001 32.238V36H377.113ZM387.46 36.19C386.46 36.19 385.624 35.9113 384.952 35.354C384.294 34.7967 383.964 34.024 383.964 33.036C383.964 31.9593 384.332 31.1487 385.066 30.604C385.814 30.0593 386.814 29.787 388.068 29.787C388.917 29.787 389.747 29.9263 390.557 30.205V30.034C390.557 28.7927 389.829 28.172 388.372 28.172C387.498 28.172 386.561 28.3557 385.56 28.723L384.838 26.519C386.08 25.9743 387.397 25.702 388.79 25.702C390.323 25.702 391.469 26.082 392.229 26.842C392.964 27.5767 393.331 28.6597 393.331 30.091V36H390.538V34.898C389.766 35.7593 388.74 36.19 387.46 36.19ZM388.334 34.195C389.006 34.195 389.55 34.0303 389.968 33.701C390.386 33.359 390.595 32.9283 390.595 32.409V31.896C390.051 31.6427 389.436 31.516 388.752 31.516C388.119 31.516 387.625 31.6427 387.27 31.896C386.928 32.1367 386.757 32.4913 386.757 32.96C386.757 33.34 386.903 33.644 387.194 33.872C387.486 34.0873 387.866 34.195 388.334 34.195ZM395.873 24.695V22.13H398.913V24.695H395.873ZM395.949 36V25.816H398.837V36H395.949ZM401.55 36V25.816H404.438V27.26C405.287 26.1707 406.281 25.626 407.421 25.626C408.51 25.626 409.359 25.9617 409.967 26.633C410.575 27.3043 410.879 28.229 410.879 29.407V36H407.991V30.319C407.991 29.6477 407.839 29.1347 407.535 28.78C407.231 28.4253 406.8 28.248 406.243 28.248C405.686 28.248 405.242 28.4253 404.913 28.78C404.596 29.1347 404.438 29.6477 404.438 30.319V36H401.55Z" fill="#F5F5F5"/>
</g>
<g filter="url(#filter3_d_29_124)">
<path d="M413.178 36V32.96H416.256V36H413.178ZM423.164 36.228C421.644 36.228 420.378 35.715 419.364 34.689C418.364 33.663 417.863 32.409 417.863 30.927C417.863 29.4577 418.37 28.21 419.383 27.184C420.397 26.1453 421.67 25.626 423.202 25.626C424.836 25.626 426.185 26.2213 427.249 27.412L425.558 29.122C424.849 28.4507 424.057 28.115 423.183 28.115C422.474 28.115 421.885 28.3873 421.416 28.932C420.948 29.4767 420.713 30.1417 420.713 30.927C420.713 31.725 420.948 32.3963 421.416 32.941C421.898 33.473 422.525 33.739 423.297 33.739C424.095 33.739 424.874 33.378 425.634 32.656L427.325 34.366C426.768 34.974 426.173 35.4363 425.539 35.753C424.906 36.0697 424.114 36.228 423.164 36.228ZM428.171 36L431.743 30.832L428.304 25.816H431.401L433.301 28.78L435.22 25.816H438.241L434.802 30.775L438.393 36H435.296L433.244 32.827L431.192 36H428.171Z" fill="#0CEDF7"/>
</g>
<path d="M777 23L786.801 33.008" stroke="#F5F5F5" stroke-width="2" stroke-linecap="round"/>
<path d="M777 33.008L786.801 23" stroke="#F5F5F5" stroke-width="2" stroke-linecap="round"/>
<path d="M750 28H763" stroke="#F5F5F5" stroke-width="2" stroke-linecap="round"/>
<path d="M302.512 92V79.4H305.5L308.812 84.728L312.124 79.4H315.112V92H312.358V83.774L308.812 89.156H308.74L305.23 83.828V92H302.512ZM320.587 92.18C319.639 92.18 318.847 91.916 318.211 91.388C317.587 90.86 317.275 90.128 317.275 89.192C317.275 88.172 317.623 87.404 318.319 86.888C319.027 86.372 319.975 86.114 321.163 86.114C321.967 86.114 322.753 86.246 323.521 86.51V86.348C323.521 85.172 322.831 84.584 321.451 84.584C320.623 84.584 319.735 84.758 318.787 85.106L318.103 83.018C319.279 82.502 320.527 82.244 321.847 82.244C323.299 82.244 324.385 82.604 325.105 83.324C325.801 84.02 326.149 85.046 326.149 86.402V92H323.503V90.956C322.771 91.772 321.799 92.18 320.587 92.18ZM321.415 90.29C322.051 90.29 322.567 90.134 322.963 89.822C323.359 89.498 323.557 89.09 323.557 88.598V88.112C323.041 87.872 322.459 87.752 321.811 87.752C321.211 87.752 320.743 87.872 320.407 88.112C320.083 88.34 319.921 88.676 319.921 89.12C319.921 89.48 320.059 89.768 320.335 89.984C320.611 90.188 320.971 90.29 321.415 90.29ZM328.557 81.29V78.86H331.437V81.29H328.557ZM328.629 92V82.352H331.365V92H328.629ZM333.935 92V82.352H336.671V83.72C337.475 82.688 338.417 82.172 339.497 82.172C340.529 82.172 341.333 82.49 341.909 83.126C342.485 83.762 342.773 84.638 342.773 85.754V92H340.037V86.618C340.037 85.982 339.893 85.496 339.605 85.16C339.317 84.824 338.909 84.656 338.381 84.656C337.853 84.656 337.433 84.824 337.121 85.16C336.821 85.496 336.671 85.982 336.671 86.618V92H333.935Z" fill="#868686"/>
<g filter="url(#filter4_d_29_124)">
<path d="M383.512 92V79.4H386.5L389.812 84.728L393.124 79.4H396.112V92H393.358V83.774L389.812 89.156H389.74L386.23 83.828V92H383.512ZM398.905 81.29V78.86H401.785V81.29H398.905ZM398.977 92V82.352H401.713V92H398.977ZM407.667 92.18C406.143 92.18 404.763 91.694 403.527 90.722L404.697 88.922C405.753 89.69 406.767 90.074 407.739 90.074C408.507 90.074 408.891 89.822 408.891 89.318C408.891 89.258 408.879 89.198 408.855 89.138C408.843 89.078 408.813 89.024 408.765 88.976C408.717 88.928 408.663 88.886 408.603 88.85C408.555 88.802 408.483 88.76 408.387 88.724C408.303 88.676 408.225 88.64 408.153 88.616C408.093 88.58 408.003 88.544 407.883 88.508C407.763 88.46 407.661 88.424 407.577 88.4C407.493 88.376 407.379 88.346 407.235 88.31C407.091 88.262 406.977 88.226 406.893 88.202C406.485 88.082 406.137 87.962 405.849 87.842C405.573 87.71 405.279 87.536 404.967 87.32C404.655 87.092 404.415 86.81 404.247 86.474C404.091 86.126 404.013 85.724 404.013 85.268C404.013 84.32 404.349 83.576 405.021 83.036C405.693 82.484 406.533 82.208 407.541 82.208C408.837 82.208 410.037 82.58 411.141 83.324L410.097 85.214C409.077 84.614 408.207 84.314 407.487 84.314C406.815 84.314 406.479 84.548 406.479 85.016C406.479 85.34 407.031 85.688 408.135 86.06C408.267 86.108 408.369 86.144 408.441 86.168C408.765 86.276 409.041 86.378 409.269 86.474C409.497 86.57 409.755 86.702 410.043 86.87C410.331 87.038 410.559 87.218 410.727 87.41C410.907 87.59 411.057 87.824 411.177 88.112C411.297 88.4 411.357 88.718 411.357 89.066C411.357 90.098 411.015 90.878 410.331 91.406C409.659 91.922 408.771 92.18 407.667 92.18ZM417.872 92.216C416.432 92.216 415.232 91.73 414.272 90.758C413.324 89.786 412.85 88.598 412.85 87.194C412.85 85.802 413.33 84.62 414.29 83.648C415.25 82.664 416.456 82.172 417.908 82.172C419.456 82.172 420.734 82.736 421.742 83.864L420.14 85.484C419.468 84.848 418.718 84.53 417.89 84.53C417.218 84.53 416.66 84.788 416.216 85.304C415.772 85.82 415.55 86.45 415.55 87.194C415.55 87.95 415.772 88.586 416.216 89.102C416.672 89.606 417.266 89.858 417.998 89.858C418.754 89.858 419.492 89.516 420.212 88.832L421.814 90.452C421.286 91.028 420.722 91.466 420.122 91.766C419.522 92.066 418.772 92.216 417.872 92.216Z" fill="#F4F5F5"/>
</g>
<path d="M459.416 92.216C457.568 92.216 456.026 91.592 454.79 90.344C453.566 89.084 452.954 87.536 452.954 85.7C452.954 83.876 453.572 82.334 454.808 81.074C456.044 79.814 457.616 79.184 459.524 79.184C460.616 79.184 461.534 79.364 462.278 79.724C463.022 80.072 463.73 80.576 464.402 81.236L462.746 83.144C462.206 82.652 461.696 82.298 461.216 82.082C460.748 81.854 460.178 81.74 459.506 81.74C458.45 81.74 457.574 82.124 456.878 82.892C456.194 83.648 455.852 84.584 455.852 85.7C455.852 86.804 456.194 87.74 456.878 88.508C457.574 89.276 458.45 89.66 459.506 89.66C460.178 89.66 460.76 89.54 461.252 89.3C461.744 89.06 462.266 88.688 462.818 88.184L464.582 90.074C463.898 90.806 463.154 91.346 462.35 91.694C461.558 92.042 460.58 92.216 459.416 92.216ZM474.797 90.758C473.801 91.73 472.559 92.216 471.071 92.216C469.583 92.216 468.341 91.736 467.345 90.776C466.361 89.804 465.869 88.61 465.869 87.194C465.869 85.79 466.367 84.602 467.363 83.63C468.371 82.658 469.619 82.172 471.107 82.172C472.595 82.172 473.831 82.658 474.815 83.63C475.811 84.59 476.309 85.778 476.309 87.194C476.309 88.598 475.805 89.786 474.797 90.758ZM471.107 89.858C471.863 89.858 472.469 89.606 472.925 89.102C473.381 88.586 473.609 87.95 473.609 87.194C473.609 86.462 473.369 85.838 472.889 85.322C472.421 84.794 471.815 84.53 471.071 84.53C470.315 84.53 469.709 84.788 469.253 85.304C468.797 85.808 468.569 86.438 468.569 87.194C468.569 87.926 468.803 88.556 469.271 89.084C469.751 89.6 470.363 89.858 471.107 89.858ZM478.29 92V82.352H481.026V83.72C481.83 82.688 482.772 82.172 483.852 82.172C484.884 82.172 485.688 82.49 486.264 83.126C486.84 83.762 487.128 84.638 487.128 85.754V92H484.392V86.618C484.392 85.982 484.248 85.496 483.96 85.16C483.672 84.824 483.264 84.656 482.736 84.656C482.208 84.656 481.788 84.824 481.476 85.16C481.176 85.496 481.026 85.982 481.026 86.618V92H478.29ZM496.435 81.29V78.86H499.315V81.29H496.435ZM489.973 92V84.692H488.839V82.442H489.973V81.83C489.973 80.786 490.231 80.006 490.747 79.49C491.251 78.986 491.989 78.734 492.961 78.734C493.693 78.734 494.341 78.824 494.905 79.004V81.272C494.473 81.116 494.059 81.038 493.663 81.038C493.003 81.038 492.673 81.386 492.673 82.082V82.46H494.887V84.692H492.709V92H489.973ZM496.507 92V82.352H499.243V92H496.507ZM506.13 94.916C504.558 94.916 503.136 94.58 501.864 93.908L502.8 91.856C503.844 92.444 504.93 92.738 506.058 92.738C507.894 92.738 508.812 91.862 508.812 90.11V89.642C508.38 90.17 507.918 90.566 507.426 90.83C506.946 91.082 506.358 91.208 505.662 91.208C504.474 91.208 503.46 90.8 502.62 89.984C501.792 89.168 501.378 88.064 501.378 86.672C501.378 85.292 501.798 84.2 502.638 83.396C503.478 82.58 504.486 82.172 505.662 82.172C506.862 82.172 507.9 82.652 508.776 83.612V82.352H511.512V89.822C511.512 91.538 511.104 92.804 510.288 93.62C509.424 94.484 508.038 94.916 506.13 94.916ZM504.78 88.328C505.224 88.736 505.782 88.94 506.454 88.94C507.126 88.94 507.684 88.73 508.128 88.31C508.584 87.89 508.812 87.344 508.812 86.672C508.812 86.024 508.584 85.49 508.128 85.07C507.684 84.65 507.126 84.44 506.454 84.44C505.782 84.44 505.224 84.65 504.78 85.07C504.336 85.49 504.114 86.036 504.114 86.708C504.114 87.368 504.336 87.908 504.78 88.328Z" fill="#868686"/>
<g filter="url(#filter5_d_29_124)">
<path d="M367 108H438" stroke="#0CEDF7" stroke-width="2" shape-rendering="crispEdges"/>
</g>
<g filter="url(#filter6_d_29_124)">
<path d="M36.512 148V135.4H39.5L42.812 140.728L46.124 135.4H49.112V148H46.358V139.774L42.812 145.156H42.74L39.23 139.828V148H36.512ZM51.905 137.29V134.86H54.785V137.29H51.905ZM51.977 148V138.352H54.713V148H51.977ZM60.6666 148.18C59.1426 148.18 57.7626 147.694 56.5266 146.722L57.6966 144.922C58.7526 145.69 59.7666 146.074 60.7386 146.074C61.5066 146.074 61.8906 145.822 61.8906 145.318C61.8906 145.258 61.8786 145.198 61.8546 145.138C61.8426 145.078 61.8126 145.024 61.7646 144.976C61.7166 144.928 61.6626 144.886 61.6026 144.85C61.5546 144.802 61.4826 144.76 61.3866 144.724C61.3026 144.676 61.2246 144.64 61.1526 144.616C61.0926 144.58 61.0026 144.544 60.8826 144.508C60.7626 144.46 60.6606 144.424 60.5766 144.4C60.4926 144.376 60.3786 144.346 60.2346 144.31C60.0906 144.262 59.9766 144.226 59.8926 144.202C59.4846 144.082 59.1366 143.962 58.8486 143.842C58.5726 143.71 58.2786 143.536 57.9666 143.32C57.6546 143.092 57.4146 142.81 57.2466 142.474C57.0906 142.126 57.0126 141.724 57.0126 141.268C57.0126 140.32 57.3486 139.576 58.0206 139.036C58.6926 138.484 59.5326 138.208 60.5406 138.208C61.8366 138.208 63.0366 138.58 64.1406 139.324L63.0966 141.214C62.0766 140.614 61.2066 140.314 60.4866 140.314C59.8146 140.314 59.4786 140.548 59.4786 141.016C59.4786 141.34 60.0306 141.688 61.1346 142.06C61.2666 142.108 61.3686 142.144 61.4406 142.168C61.7646 142.276 62.0406 142.378 62.2686 142.474C62.4966 142.57 62.7546 142.702 63.0426 142.87C63.3306 143.038 63.5586 143.218 63.7266 143.41C63.9066 143.59 64.0566 143.824 64.1766 144.112C64.2966 144.4 64.3566 144.718 64.3566 145.066C64.3566 146.098 64.0146 146.878 63.3306 147.406C62.6586 147.922 61.7706 148.18 60.6666 148.18ZM70.8718 148.216C69.4318 148.216 68.2318 147.73 67.2718 146.758C66.3238 145.786 65.8498 144.598 65.8498 143.194C65.8498 141.802 66.3298 140.62 67.2898 139.648C68.2498 138.664 69.4558 138.172 70.9078 138.172C72.4558 138.172 73.7338 138.736 74.7418 139.864L73.1398 141.484C72.4678 140.848 71.7178 140.53 70.8898 140.53C70.2178 140.53 69.6598 140.788 69.2158 141.304C68.7718 141.82 68.5498 142.45 68.5498 143.194C68.5498 143.95 68.7718 144.586 69.2158 145.102C69.6718 145.606 70.2658 145.858 70.9978 145.858C71.7538 145.858 72.4918 145.516 73.2118 144.832L74.8138 146.452C74.2858 147.028 73.7218 147.466 73.1218 147.766C72.5218 148.066 71.7718 148.216 70.8718 148.216ZM86.7674 148.18C84.7034 148.18 82.9214 147.508 81.4214 146.164L83.0594 144.202C84.2954 145.222 85.5494 145.732 86.8214 145.732C87.3854 145.732 87.8294 145.624 88.1534 145.408C88.4774 145.192 88.6394 144.892 88.6394 144.508C88.6394 144.148 88.4714 143.86 88.1354 143.644C87.7994 143.416 87.1214 143.17 86.1014 142.906C85.3814 142.726 84.7994 142.552 84.3554 142.384C83.9114 142.204 83.4854 141.97 83.0774 141.682C82.6814 141.394 82.3874 141.034 82.1954 140.602C82.0154 140.158 81.9254 139.63 81.9254 139.018C81.9254 137.878 82.3334 136.96 83.1494 136.264C83.9774 135.568 85.0394 135.22 86.3354 135.22C88.1234 135.22 89.6834 135.754 91.0154 136.822L89.5754 138.91C88.3874 138.082 87.2954 137.668 86.2994 137.668C85.7834 137.668 85.3814 137.776 85.0934 137.992C84.8174 138.196 84.6794 138.466 84.6794 138.802C84.6794 139.21 84.8534 139.516 85.2014 139.72C85.5494 139.924 86.2814 140.17 87.3974 140.458C88.7654 140.818 89.7734 141.28 90.4214 141.844C91.0694 142.408 91.3934 143.218 91.3934 144.274C91.3934 145.498 90.9674 146.458 90.1154 147.154C89.2754 147.838 88.1594 148.18 86.7674 148.18ZM98.0831 148.216C96.6191 148.216 95.4131 147.754 94.4651 146.83C93.5171 145.894 93.0431 144.682 93.0431 143.194C93.0431 141.79 93.4931 140.602 94.3931 139.63C95.2931 138.658 96.4331 138.172 97.8131 138.172C99.3371 138.172 100.501 138.676 101.305 139.684C102.109 140.692 102.511 141.934 102.511 143.41C102.511 143.554 102.499 143.794 102.475 144.13H95.7611C95.8931 144.742 96.1631 145.21 96.5711 145.534C96.9791 145.858 97.4951 146.02 98.1191 146.02C98.9711 146.02 99.7511 145.69 100.459 145.03L102.025 146.416C101.053 147.616 99.7391 148.216 98.0831 148.216ZM95.7251 142.42H99.8471C99.7631 141.796 99.5411 141.298 99.1811 140.926C98.8331 140.554 98.3771 140.368 97.8131 140.368C97.2611 140.368 96.7991 140.554 96.4271 140.926C96.0671 141.286 95.8331 141.784 95.7251 142.42ZM107.808 148.162C106.908 148.162 106.212 147.946 105.72 147.514C105.24 147.07 105 146.32 105 145.264V140.692H103.848V138.352H105V135.886H107.736V138.352H110.004V140.692H107.736V144.814C107.736 145.438 108.03 145.75 108.618 145.75C109.098 145.75 109.548 145.636 109.968 145.408V147.604C109.344 147.976 108.624 148.162 107.808 148.162ZM115.279 148.162C114.379 148.162 113.683 147.946 113.191 147.514C112.711 147.07 112.471 146.32 112.471 145.264V140.692H111.319V138.352H112.471V135.886H115.207V138.352H117.475V140.692H115.207V144.814C115.207 145.438 115.501 145.75 116.089 145.75C116.569 145.75 117.019 145.636 117.439 145.408V147.604C116.815 147.976 116.095 148.162 115.279 148.162ZM119.546 137.29V134.86H122.426V137.29H119.546ZM119.618 148V138.352H122.354V148H119.618ZM124.923 148V138.352H127.659V139.72C128.463 138.688 129.405 138.172 130.485 138.172C131.517 138.172 132.321 138.49 132.897 139.126C133.473 139.762 133.761 140.638 133.761 141.754V148H131.025V142.618C131.025 141.982 130.881 141.496 130.593 141.16C130.305 140.824 129.897 140.656 129.369 140.656C128.841 140.656 128.421 140.824 128.109 141.16C127.809 141.496 127.659 141.982 127.659 142.618V148H124.923ZM140.458 150.916C138.886 150.916 137.464 150.58 136.192 149.908L137.128 147.856C138.172 148.444 139.258 148.738 140.386 148.738C142.222 148.738 143.14 147.862 143.14 146.11V145.642C142.708 146.17 142.246 146.566 141.754 146.83C141.274 147.082 140.686 147.208 139.99 147.208C138.802 147.208 137.788 146.8 136.948 145.984C136.12 145.168 135.706 144.064 135.706 142.672C135.706 141.292 136.126 140.2 136.966 139.396C137.806 138.58 138.814 138.172 139.99 138.172C141.19 138.172 142.228 138.652 143.104 139.612V138.352H145.84V145.822C145.84 147.538 145.432 148.804 144.616 149.62C143.752 150.484 142.366 150.916 140.458 150.916ZM139.108 144.328C139.552 144.736 140.11 144.94 140.782 144.94C141.454 144.94 142.012 144.73 142.456 144.31C142.912 143.89 143.14 143.344 143.14 142.672C143.14 142.024 142.912 141.49 142.456 141.07C142.012 140.65 141.454 140.44 140.782 140.44C140.11 140.44 139.552 140.65 139.108 141.07C138.664 141.49 138.442 142.036 138.442 142.708C138.442 143.368 138.664 143.908 139.108 144.328ZM151.669 148.18C150.145 148.18 148.765 147.694 147.529 146.722L148.699 144.922C149.755 145.69 150.769 146.074 151.741 146.074C152.509 146.074 152.893 145.822 152.893 145.318C152.893 145.258 152.881 145.198 152.857 145.138C152.845 145.078 152.815 145.024 152.767 144.976C152.719 144.928 152.665 144.886 152.605 144.85C152.557 144.802 152.485 144.76 152.389 144.724C152.305 144.676 152.227 144.64 152.155 144.616C152.095 144.58 152.005 144.544 151.885 144.508C151.765 144.46 151.663 144.424 151.579 144.4C151.495 144.376 151.381 144.346 151.237 144.31C151.093 144.262 150.979 144.226 150.895 144.202C150.487 144.082 150.139 143.962 149.851 143.842C149.575 143.71 149.281 143.536 148.969 143.32C148.657 143.092 148.417 142.81 148.249 142.474C148.093 142.126 148.015 141.724 148.015 141.268C148.015 140.32 148.351 139.576 149.023 139.036C149.695 138.484 150.535 138.208 151.543 138.208C152.839 138.208 154.039 138.58 155.143 139.324L154.099 141.214C153.079 140.614 152.209 140.314 151.489 140.314C150.817 140.314 150.481 140.548 150.481 141.016C150.481 141.34 151.033 141.688 152.137 142.06C152.269 142.108 152.371 142.144 152.443 142.168C152.767 142.276 153.043 142.378 153.271 142.474C153.499 142.57 153.757 142.702 154.045 142.87C154.333 143.038 154.561 143.218 154.729 143.41C154.909 143.59 155.059 143.824 155.179 144.112C155.299 144.4 155.359 144.718 155.359 145.066C155.359 146.098 155.017 146.878 154.333 147.406C153.661 147.922 152.773 148.18 151.669 148.18Z" fill="#F5F5F5"/>
</g>
<g filter="url(#filter7_d_29_124)">
<path d="M36 165H157" stroke="#0CEDF7" stroke-width="2" shape-rendering="crispEdges"/>
</g>
<g filter="url(#filter8_d_29_124)">
<path d="M436.762 148.378L435.376 147.136C434.26 147.856 433.012 148.216 431.632 148.216C429.712 148.216 428.116 147.586 426.844 146.326C425.584 145.066 424.954 143.524 424.954 141.7C424.954 139.888 425.59 138.352 426.862 137.092C428.146 135.82 429.748 135.184 431.668 135.184C433.588 135.184 435.178 135.814 436.438 137.074C437.71 138.334 438.346 139.876 438.346 141.7C438.346 143.032 437.974 144.238 437.23 145.318L438.526 146.416L436.762 148.378ZM431.668 145.66C432.256 145.66 432.808 145.546 433.324 145.318L431.272 143.572L433.036 141.592L435.106 143.464C435.334 142.96 435.448 142.372 435.448 141.7C435.448 140.596 435.088 139.66 434.368 138.892C433.648 138.124 432.736 137.74 431.632 137.74C430.528 137.74 429.622 138.124 428.914 138.892C428.206 139.648 427.852 140.584 427.852 141.7C427.852 142.804 428.212 143.74 428.932 144.508C429.652 145.276 430.564 145.66 431.668 145.66ZM443.721 148.18C442.689 148.18 441.885 147.862 441.309 147.226C440.733 146.59 440.445 145.714 440.445 144.598V138.352H443.181V143.734C443.181 144.37 443.325 144.856 443.613 145.192C443.901 145.528 444.309 145.696 444.837 145.696C445.365 145.696 445.779 145.528 446.079 145.192C446.391 144.856 446.547 144.37 446.547 143.734V138.352H449.283V148H446.547V146.632C445.743 147.664 444.801 148.18 443.721 148.18ZM454.468 148.18C453.52 148.18 452.728 147.916 452.092 147.388C451.468 146.86 451.156 146.128 451.156 145.192C451.156 144.172 451.504 143.404 452.2 142.888C452.908 142.372 453.856 142.114 455.044 142.114C455.848 142.114 456.634 142.246 457.402 142.51V142.348C457.402 141.172 456.712 140.584 455.332 140.584C454.504 140.584 453.616 140.758 452.668 141.106L451.984 139.018C453.16 138.502 454.408 138.244 455.728 138.244C457.18 138.244 458.266 138.604 458.986 139.324C459.682 140.02 460.03 141.046 460.03 142.402V148H457.384V146.956C456.652 147.772 455.68 148.18 454.468 148.18ZM455.296 146.29C455.932 146.29 456.448 146.134 456.844 145.822C457.24 145.498 457.438 145.09 457.438 144.598V144.112C456.922 143.872 456.34 143.752 455.692 143.752C455.092 143.752 454.624 143.872 454.288 144.112C453.964 144.34 453.802 144.676 453.802 145.12C453.802 145.48 453.94 145.768 454.216 145.984C454.492 146.188 454.852 146.29 455.296 146.29ZM462.51 148V134.86H465.246V148H462.51ZM467.87 137.29V134.86H470.75V137.29H467.87ZM467.942 148V138.352H470.678V148H467.942ZM476.505 148.162C475.605 148.162 474.909 147.946 474.417 147.514C473.937 147.07 473.697 146.32 473.697 145.264V140.692H472.545V138.352H473.697V135.886H476.433V138.352H478.701V140.692H476.433V144.814C476.433 145.438 476.727 145.75 477.315 145.75C477.795 145.75 478.245 145.636 478.665 145.408V147.604C478.041 147.976 477.321 148.162 476.505 148.162ZM483.022 150.934C482.158 150.934 481.348 150.712 480.592 150.268L481.51 148.288C481.93 148.54 482.32 148.666 482.68 148.666C483.112 148.666 483.43 148.456 483.634 148.036L479.854 138.352H482.752L484.948 144.922L487.054 138.352H489.898L486.19 148.234C485.818 149.23 485.398 149.926 484.93 150.322C484.462 150.73 483.826 150.934 483.022 150.934ZM508.104 146.326C506.832 147.586 505.236 148.216 503.316 148.216C501.396 148.216 499.8 147.586 498.528 146.326C497.268 145.066 496.638 143.524 496.638 141.7C496.638 139.888 497.274 138.352 498.546 137.092C499.83 135.82 501.432 135.184 503.352 135.184C505.272 135.184 506.862 135.814 508.122 137.074C509.394 138.334 510.03 139.876 510.03 141.7C510.03 143.512 509.388 145.054 508.104 146.326ZM500.616 144.508C501.336 145.276 502.248 145.66 503.352 145.66C504.456 145.66 505.362 145.282 506.07 144.526C506.778 143.758 507.132 142.816 507.132 141.7C507.132 140.596 506.772 139.66 506.052 138.892C505.332 138.124 504.42 137.74 503.316 137.74C502.212 137.74 501.306 138.124 500.598 138.892C499.89 139.648 499.536 140.584 499.536 141.7C499.536 142.804 499.896 143.74 500.616 144.508ZM512.669 148V140.692H511.535V138.442H512.669V137.83C512.669 136.786 512.927 136.006 513.443 135.49C513.947 134.986 514.685 134.734 515.657 134.734C516.389 134.734 517.037 134.824 517.601 135.004V137.272C517.169 137.116 516.755 137.038 516.359 137.038C515.699 137.038 515.369 137.386 515.369 138.082V138.46H517.583V140.692H515.405V148H512.669ZM524.758 148V135.4H527.53V145.48H533.812V148H524.758ZM535.669 137.29V134.86H538.549V137.29H535.669ZM535.741 148V138.352H538.477V148H535.741ZM541.514 148V140.692H540.38V138.442H541.514V137.83C541.514 136.786 541.772 136.006 542.288 135.49C542.792 134.986 543.53 134.734 544.502 134.734C545.234 134.734 545.882 134.824 546.446 135.004V137.272C546.014 137.116 545.6 137.038 545.204 137.038C544.544 137.038 544.214 137.386 544.214 138.082V138.46H546.428V140.692H544.25V148H541.514ZM552.316 148.216C550.852 148.216 549.646 147.754 548.698 146.83C547.75 145.894 547.276 144.682 547.276 143.194C547.276 141.79 547.726 140.602 548.626 139.63C549.526 138.658 550.666 138.172 552.046 138.172C553.57 138.172 554.734 138.676 555.538 139.684C556.342 140.692 556.744 141.934 556.744 143.41C556.744 143.554 556.732 143.794 556.708 144.13H549.994C550.126 144.742 550.396 145.21 550.804 145.534C551.212 145.858 551.728 146.02 552.352 146.02C553.204 146.02 553.984 145.69 554.692 145.03L556.258 146.416C555.286 147.616 553.972 148.216 552.316 148.216ZM549.958 142.42H554.08C553.996 141.796 553.774 141.298 553.414 140.926C553.066 140.554 552.61 140.368 552.046 140.368C551.494 140.368 551.032 140.554 550.66 140.926C550.3 141.286 550.066 141.784 549.958 142.42Z" fill="#F5F5F5"/>
</g>
<g filter="url(#filter9_d_29_124)">
<path d="M425 165H558" stroke="#0CEDF7" stroke-width="2" shape-rendering="crispEdges"/>
</g>
<path d="M55 177H41C38.2386 177 36 179.239 36 182V196C36 198.761 38.2386 201 41 201H55C57.7614 201 60 198.761 60 196V182C60 179.239 57.7614 177 55 177Z" fill="#191F26"/>
<path d="M55 177.5H41C38.5147 177.5 36.5 179.515 36.5 182V196C36.5 198.485 38.5147 200.5 41 200.5H55C57.4853 200.5 59.5 198.485 59.5 196V182C59.5 179.515 57.4853 177.5 55 177.5Z" stroke="#1F272E"/>
<g filter="url(#filter10_d_29_124)">
<path d="M69.105 195V193.453L76.126 184.953H69.326V183.1H78.846V184.647L71.825 193.147H78.846V195H69.105ZM85.0639 195.204C83.7039 195.204 82.5705 194.751 81.6639 193.844C80.7572 192.937 80.3039 191.832 80.3039 190.529C80.3039 189.226 80.7629 188.121 81.6809 187.214C82.5989 186.296 83.7379 185.837 85.0979 185.837C86.4579 185.837 87.5912 186.29 88.4979 187.197C89.4159 188.104 89.8749 189.214 89.8749 190.529C89.8749 191.821 89.4159 192.926 88.4979 193.844C87.5799 194.751 86.4352 195.204 85.0639 195.204ZM85.0979 193.419C85.9139 193.419 86.5712 193.141 87.0699 192.586C87.5685 192.031 87.8179 191.345 87.8179 190.529C87.8179 189.724 87.5572 189.044 87.0359 188.489C86.5145 187.922 85.8572 187.639 85.0639 187.639C84.2592 187.639 83.6075 187.917 83.1089 188.472C82.6102 189.027 82.3609 189.713 82.3609 190.529C82.3609 191.322 82.6215 192.002 83.1429 192.569C83.6642 193.136 84.3159 193.419 85.0979 193.419ZM96.2367 195.204C94.8767 195.204 93.7434 194.751 92.8367 193.844C91.9301 192.937 91.4767 191.832 91.4767 190.529C91.4767 189.226 91.9357 188.121 92.8537 187.214C93.7717 186.296 94.9107 185.837 96.2707 185.837C97.6307 185.837 98.7641 186.29 99.6707 187.197C100.589 188.104 101.048 189.214 101.048 190.529C101.048 191.821 100.589 192.926 99.6707 193.844C98.7527 194.751 97.6081 195.204 96.2367 195.204ZM96.2707 193.419C97.0867 193.419 97.7441 193.141 98.2427 192.586C98.7414 192.031 98.9907 191.345 98.9907 190.529C98.9907 189.724 98.7301 189.044 98.2087 188.489C97.6874 187.922 97.0301 187.639 96.2367 187.639C95.4321 187.639 94.7804 187.917 94.2817 188.472C93.7831 189.027 93.5337 189.713 93.5337 190.529C93.5337 191.322 93.7944 192.002 94.3157 192.569C94.8371 193.136 95.4887 193.419 96.2707 193.419ZM103.143 195V186.024H105.2V187.384C105.948 186.353 106.86 185.837 107.937 185.837C109.183 185.837 110.073 186.364 110.606 187.418C111.41 186.364 112.425 185.837 113.649 185.837C114.635 185.837 115.405 186.137 115.961 186.738C116.516 187.339 116.794 188.183 116.794 189.271V195H114.737V189.9C114.737 189.186 114.578 188.642 114.261 188.268C113.943 187.894 113.496 187.707 112.918 187.707C112.34 187.707 111.875 187.905 111.524 188.302C111.172 188.687 110.997 189.231 110.997 189.934V195H108.94V189.883C108.94 189.192 108.781 188.659 108.464 188.285C108.146 187.9 107.699 187.707 107.121 187.707C106.543 187.707 106.078 187.911 105.727 188.319C105.375 188.716 105.2 189.26 105.2 189.951V195H103.143Z" fill="#868686"/>
</g>
<path d="M375.25 177H317.75C314.574 177 312 179.239 312 182V196C312 198.761 314.574 201 317.75 201H375.25C378.426 201 381 198.761 381 196V182C381 179.239 378.426 177 375.25 177Z" fill="#191F26"/>
<path d="M375.25 177.75H317.75C315.051 177.75 312.863 179.653 312.863 182V196C312.863 198.347 315.051 200.25 317.75 200.25H375.25C377.949 200.25 380.138 198.347 380.138 196V182C380.138 179.653 377.949 177.75 375.25 177.75Z" stroke="#20272E" stroke-width="1.5"/>
<g filter="url(#filter11_d_29_124)">
<path d="M324.35 194V183.5H326.06L331.685 190.76V183.5H333.5V194H331.955L326.165 186.53V194H324.35ZM345.156 192.59C344.116 193.65 342.801 194.18 341.211 194.18C339.621 194.18 338.311 193.655 337.281 192.605C336.251 191.555 335.736 190.27 335.736 188.75C335.736 187.25 336.256 185.97 337.296 184.91C338.336 183.85 339.651 183.32 341.241 183.32C342.831 183.32 344.141 183.845 345.171 184.895C346.201 185.945 346.716 187.23 346.716 188.75C346.716 190.25 346.196 191.53 345.156 192.59ZM338.676 191.405C339.356 192.125 340.211 192.485 341.241 192.485C342.271 192.485 343.116 192.125 343.776 191.405C344.446 190.685 344.781 189.8 344.781 188.75C344.781 187.71 344.441 186.83 343.761 186.11C343.091 185.38 342.241 185.015 341.211 185.015C340.181 185.015 339.331 185.375 338.661 186.095C338.001 186.815 337.671 187.7 337.671 188.75C337.671 189.79 338.006 190.675 338.676 191.405ZM348.945 194V183.5H350.655L356.28 190.76V183.5H358.095V194H356.55L350.76 186.53V194H348.945ZM360.795 194V183.5H368.58V185.15H362.64V187.88H367.905V189.53H362.64V192.35H368.655V194H360.795Z" fill="#868686"/>
</g>
<path d="M55 212H41C38.2386 212 36 214.239 36 217V231C36 233.761 38.2386 236 41 236H55C57.7614 236 60 233.761 60 231V217C60 214.239 57.7614 212 55 212Z" fill="#191F26"/>
<path d="M55 212.5H41C38.5147 212.5 36.5 214.515 36.5 217V231C36.5 233.485 38.5147 235.5 41 235.5H55C57.4853 235.5 59.5 233.485 59.5 231V217C59.5 214.515 57.4853 212.5 55 212.5Z" stroke="#1F272E"/>
<g filter="url(#filter12_d_29_124)">
<path d="M73.695 230.17C71.8023 230.17 70.1477 229.535 68.731 228.266L69.989 226.77C71.179 227.801 72.4313 228.317 73.746 228.317C74.392 228.317 74.902 228.181 75.276 227.909C75.6613 227.626 75.854 227.252 75.854 226.787C75.854 226.345 75.6727 225.994 75.31 225.733C74.9473 225.461 74.2333 225.2 73.168 224.951C71.7853 224.622 70.7767 224.209 70.142 223.71C69.5187 223.2 69.207 222.424 69.207 221.381C69.207 220.361 69.5867 219.534 70.346 218.899C71.1053 218.253 72.08 217.93 73.27 217.93C74.902 217.93 76.3413 218.429 77.588 219.426L76.466 221.007C75.3667 220.191 74.29 219.783 73.236 219.783C72.6353 219.783 72.1593 219.919 71.808 220.191C71.468 220.463 71.298 220.809 71.298 221.228C71.298 221.693 71.485 222.055 71.859 222.316C72.2443 222.565 72.998 222.826 74.12 223.098C75.4347 223.415 76.398 223.84 77.01 224.373C77.6333 224.906 77.945 225.654 77.945 226.617C77.945 227.716 77.554 228.583 76.772 229.218C75.99 229.853 74.9643 230.17 73.695 230.17ZM83.175 230.153C81.4524 230.153 80.591 229.275 80.591 227.518V222.792H79.452V221.024H80.591V218.559H82.648V221.024H85.062V222.792H82.648V227.195C82.648 227.943 83.0164 228.317 83.753 228.317C84.195 228.317 84.62 228.215 85.028 228.011V229.694C84.484 230 83.8664 230.153 83.175 230.153ZM87.1387 230V221.024H89.1957V223.047C89.8303 221.517 90.89 220.786 92.3747 220.854V223.03H92.2557C91.3263 223.03 90.584 223.336 90.0287 223.948C89.4733 224.549 89.1957 225.427 89.1957 226.583V230H87.1387ZM97.9763 230.204C96.6616 230.204 95.5623 229.768 94.6783 228.895C93.8056 228.022 93.3693 226.895 93.3693 225.512C93.3693 224.209 93.783 223.104 94.6103 222.197C95.4376 221.29 96.486 220.837 97.7553 220.837C99.1153 220.837 100.169 221.302 100.917 222.231C101.677 223.149 102.056 224.294 102.056 225.665C102.056 225.914 102.045 226.107 102.022 226.243H95.4263C95.5396 226.957 95.8286 227.518 96.2933 227.926C96.758 228.323 97.3303 228.521 98.0103 228.521C98.8943 228.521 99.7046 228.164 100.441 227.45L101.648 228.521C100.719 229.643 99.495 230.204 97.9763 230.204ZM95.4093 224.883H100.016C99.9483 224.192 99.716 223.625 99.3193 223.183C98.9226 222.741 98.3956 222.52 97.7383 222.52C97.115 222.52 96.5936 222.741 96.1743 223.183C95.755 223.614 95.5 224.18 95.4093 224.883ZM111.653 230H109.613V228.895C108.888 229.756 107.919 230.187 106.706 230.187C105.811 230.187 105.051 229.943 104.428 229.456C103.816 228.957 103.51 228.266 103.51 227.382C103.51 226.419 103.844 225.688 104.513 225.189C105.182 224.69 106.06 224.441 107.148 224.441C108.021 224.441 108.848 224.566 109.63 224.815V224.645C109.63 224.022 109.437 223.546 109.052 223.217C108.678 222.888 108.134 222.724 107.42 222.724C106.604 222.724 105.748 222.911 104.853 223.285L104.292 221.636C105.403 221.137 106.542 220.888 107.709 220.888C109.012 220.888 109.993 221.217 110.65 221.874C111.319 222.531 111.653 223.466 111.653 224.679V230ZM109.664 226.753V226.243C109.052 226.005 108.366 225.886 107.607 225.886C106.961 225.886 106.457 226.011 106.094 226.26C105.731 226.509 105.55 226.861 105.55 227.314C105.55 227.722 105.714 228.045 106.043 228.283C106.372 228.521 106.785 228.64 107.284 228.64C107.975 228.64 108.542 228.464 108.984 228.113C109.437 227.762 109.664 227.308 109.664 226.753ZM114.1 230V221.024H116.157V222.384C116.905 221.353 117.817 220.837 118.894 220.837C120.14 220.837 121.03 221.364 121.563 222.418C122.367 221.364 123.382 220.837 124.606 220.837C125.592 220.837 126.362 221.137 126.918 221.738C127.473 222.339 127.751 223.183 127.751 224.271V230H125.694V224.9C125.694 224.186 125.535 223.642 125.218 223.268C124.9 222.894 124.453 222.707 123.875 222.707C123.297 222.707 122.832 222.905 122.481 223.302C122.129 223.687 121.954 224.231 121.954 224.934V230H119.897V224.883C119.897 224.192 119.738 223.659 119.421 223.285C119.103 222.9 118.656 222.707 118.078 222.707C117.5 222.707 117.035 222.911 116.684 223.319C116.332 223.716 116.157 224.26 116.157 224.951V230H114.1ZM130.253 232.72V221.024H132.31V222.52C133.103 221.398 134.118 220.837 135.353 220.837C136.486 220.837 137.467 221.262 138.294 222.112C139.121 222.951 139.535 224.09 139.535 225.529C139.535 226.946 139.121 228.079 138.294 228.929C137.467 229.768 136.486 230.187 135.353 230.187C134.118 230.187 133.103 229.66 132.31 228.606V232.72H130.253ZM134.877 228.402C135.602 228.402 136.209 228.136 136.696 227.603C137.195 227.07 137.444 226.368 137.444 225.495C137.444 224.645 137.195 223.954 136.696 223.421C136.197 222.888 135.591 222.622 134.877 222.622C134.163 222.622 133.545 222.894 133.024 223.438C132.514 223.982 132.259 224.679 132.259 225.529C132.259 226.368 132.514 227.059 133.024 227.603C133.545 228.136 134.163 228.402 134.877 228.402ZM141.642 230V221.024H143.699V223.047C144.333 221.517 145.393 220.786 146.878 220.854V223.03H146.759C145.829 223.03 145.087 223.336 144.532 223.948C143.976 224.549 143.699 225.427 143.699 226.583V230H141.642ZM152.632 230.204C151.272 230.204 150.139 229.751 149.232 228.844C148.326 227.937 147.872 226.832 147.872 225.529C147.872 224.226 148.331 223.121 149.249 222.214C150.167 221.296 151.306 220.837 152.666 220.837C154.026 220.837 155.16 221.29 156.066 222.197C156.984 223.104 157.443 224.214 157.443 225.529C157.443 226.821 156.984 227.926 156.066 228.844C155.148 229.751 154.004 230.204 152.632 230.204ZM152.666 228.419C153.482 228.419 154.14 228.141 154.638 227.586C155.137 227.031 155.386 226.345 155.386 225.529C155.386 224.724 155.126 224.044 154.604 223.489C154.083 222.922 153.426 222.639 152.632 222.639C151.828 222.639 151.176 222.917 150.677 223.472C150.179 224.027 149.929 224.713 149.929 225.529C149.929 226.322 150.19 227.002 150.711 227.569C151.233 228.136 151.884 228.419 152.666 228.419ZM163.805 230.204C162.445 230.204 161.312 229.751 160.405 228.844C159.498 227.937 159.045 226.832 159.045 225.529C159.045 224.226 159.504 223.121 160.422 222.214C161.34 221.296 162.479 220.837 163.839 220.837C165.199 220.837 166.332 221.29 167.239 222.197C168.157 223.104 168.616 224.214 168.616 225.529C168.616 226.821 168.157 227.926 167.239 228.844C166.321 229.751 165.176 230.204 163.805 230.204ZM163.839 228.419C164.655 228.419 165.312 228.141 165.811 227.586C166.31 227.031 166.559 226.345 166.559 225.529C166.559 224.724 166.298 224.044 165.777 223.489C165.256 222.922 164.598 222.639 163.805 222.639C163 222.639 162.349 222.917 161.85 223.472C161.351 224.027 161.102 224.713 161.102 225.529C161.102 226.322 161.363 227.002 161.884 227.569C162.405 228.136 163.057 228.419 163.839 228.419ZM171.17 230V222.792H170.031V221.075H171.17V220.429C171.17 219.432 171.414 218.689 171.901 218.202C172.377 217.726 173.051 217.488 173.924 217.488C174.502 217.488 175.057 217.567 175.59 217.726V219.46C175.148 219.313 174.746 219.239 174.383 219.239C173.59 219.239 173.193 219.692 173.193 220.599V221.092H175.573V222.792H173.227V230H171.17Z" fill="#868686"/>
</g>
<path d="M375.25 212H317.75C314.574 212 312 214.239 312 217V231C312 233.761 314.574 236 317.75 236H375.25C378.426 236 381 233.761 381 231V217C381 214.239 378.426 212 375.25 212Z" fill="#191F26"/>
<path d="M375.25 212.75H317.75C315.051 212.75 312.863 214.653 312.863 217V231C312.863 233.347 315.051 235.25 317.75 235.25H375.25C377.949 235.25 380.138 233.347 380.138 231V217C380.138 214.653 377.949 212.75 375.25 212.75Z" stroke="#20272E" stroke-width="1.5"/>
<g filter="url(#filter13_d_29_124)">
<path d="M324.35 229V218.5H326.06L331.685 225.76V218.5H333.5V229H331.955L326.165 221.53V229H324.35ZM345.156 227.59C344.116 228.65 342.801 229.18 341.211 229.18C339.621 229.18 338.311 228.655 337.281 227.605C336.251 226.555 335.736 225.27 335.736 223.75C335.736 222.25 336.256 220.97 337.296 219.91C338.336 218.85 339.651 218.32 341.241 218.32C342.831 218.32 344.141 218.845 345.171 219.895C346.201 220.945 346.716 222.23 346.716 223.75C346.716 225.25 346.196 226.53 345.156 227.59ZM338.676 226.405C339.356 227.125 340.211 227.485 341.241 227.485C342.271 227.485 343.116 227.125 343.776 226.405C344.446 225.685 344.781 224.8 344.781 223.75C344.781 222.71 344.441 221.83 343.761 221.11C343.091 220.38 342.241 220.015 341.211 220.015C340.181 220.015 339.331 220.375 338.661 221.095C338.001 221.815 337.671 222.7 337.671 223.75C337.671 224.79 338.006 225.675 338.676 226.405ZM348.945 229V218.5H350.655L356.28 225.76V218.5H358.095V229H356.55L350.76 221.53V229H348.945ZM360.795 229V218.5H368.58V220.15H362.64V222.88H367.905V224.53H362.64V227.35H368.655V229H360.795Z" fill="#868686"/>
</g>
<path d="M55 247H41C38.2386 247 36 249.239 36 252V266C36 268.761 38.2386 271 41 271H55C57.7614 271 60 268.761 60 266V252C60 249.239 57.7614 247 55 247Z" fill="#191F26"/>
<path d="M55 247.5H41C38.5147 247.5 36.5 249.515 36.5 252V266C36.5 268.485 38.5147 270.5 41 270.5H55C57.4853 270.5 59.5 268.485 59.5 266V252C59.5 249.515 57.4853 247.5 55 247.5Z" stroke="#1F272E"/>
<g filter="url(#filter14_d_29_124)">
<path d="M69.53 265V253.1H71.621V258.047H77.299V253.1H79.39V265H77.299V259.985H71.621V265H69.53ZM82.242 254.647V252.692H84.452V254.647H82.242ZM82.327 265V256.024H84.384V265H82.327ZM90.7783 265.187C89.6563 265.187 88.6816 264.768 87.8543 263.929C87.0269 263.079 86.6133 261.934 86.6133 260.495C86.6133 259.067 87.0213 257.934 87.8373 257.095C88.6646 256.256 89.6449 255.837 90.7783 255.837C92.0023 255.837 93.0223 256.364 93.8383 257.418V252.59H95.8953V265H93.8383V263.504C93.0449 264.626 92.0249 265.187 90.7783 265.187ZM89.4353 262.603C89.9453 263.136 90.5573 263.402 91.2713 263.402C91.9853 263.402 92.5973 263.13 93.1073 262.586C93.6173 262.042 93.8723 261.345 93.8723 260.495C93.8723 259.656 93.6173 258.971 93.1073 258.438C92.5973 257.894 91.9853 257.622 91.2713 257.622C90.5459 257.622 89.9339 257.888 89.4353 258.421C88.9366 258.942 88.6873 259.645 88.6873 260.529C88.6873 261.379 88.9366 262.07 89.4353 262.603ZM102.575 265.204C101.26 265.204 100.161 264.768 99.2769 263.895C98.4043 263.022 97.9679 261.895 97.9679 260.512C97.9679 259.209 98.3816 258.104 99.2089 257.197C100.036 256.29 101.085 255.837 102.354 255.837C103.714 255.837 104.768 256.302 105.516 257.231C106.275 258.149 106.655 259.294 106.655 260.665C106.655 260.914 106.644 261.107 106.621 261.243H100.025C100.138 261.957 100.427 262.518 100.892 262.926C101.357 263.323 101.929 263.521 102.609 263.521C103.493 263.521 104.303 263.164 105.04 262.45L106.247 263.521C105.318 264.643 104.094 265.204 102.575 265.204ZM100.008 259.883H104.615C104.547 259.192 104.315 258.625 103.918 258.183C103.521 257.741 102.994 257.52 102.337 257.52C101.714 257.52 101.192 257.741 100.773 258.183C100.354 258.614 100.099 259.18 100.008 259.883ZM114.055 265V253.1H122.912V255.004H116.146V258.251H122.147V260.155H116.146V265H114.055ZM124.974 265V256.024H127.031V258.047C127.665 256.517 128.725 255.786 130.21 255.854V258.03H130.091C129.161 258.03 128.419 258.336 127.864 258.948C127.308 259.549 127.031 260.427 127.031 261.583V265H124.974ZM135.964 265.204C134.604 265.204 133.471 264.751 132.564 263.844C131.658 262.937 131.204 261.832 131.204 260.529C131.204 259.226 131.663 258.121 132.581 257.214C133.499 256.296 134.638 255.837 135.998 255.837C137.358 255.837 138.492 256.29 139.398 257.197C140.316 258.104 140.775 259.214 140.775 260.529C140.775 261.821 140.316 262.926 139.398 263.844C138.48 264.751 137.336 265.204 135.964 265.204ZM135.998 263.419C136.814 263.419 137.472 263.141 137.97 262.586C138.469 262.031 138.718 261.345 138.718 260.529C138.718 259.724 138.458 259.044 137.936 258.489C137.415 257.922 136.758 257.639 135.964 257.639C135.16 257.639 134.508 257.917 134.009 258.472C133.511 259.027 133.261 259.713 133.261 260.529C133.261 261.322 133.522 262.002 134.043 262.569C134.565 263.136 135.216 263.419 135.998 263.419ZM142.87 265V256.024H144.927V257.384C145.675 256.353 146.587 255.837 147.664 255.837C148.911 255.837 149.8 256.364 150.333 257.418C151.138 256.364 152.152 255.837 153.376 255.837C154.362 255.837 155.133 256.137 155.688 256.738C156.243 257.339 156.521 258.183 156.521 259.271V265H154.464V259.9C154.464 259.186 154.305 258.642 153.988 258.268C153.671 257.894 153.223 257.707 152.645 257.707C152.067 257.707 151.602 257.905 151.251 258.302C150.9 258.687 150.724 259.231 150.724 259.934V265H148.667V259.883C148.667 259.192 148.508 258.659 148.191 258.285C147.874 257.9 147.426 257.707 146.848 257.707C146.27 257.707 145.805 257.911 145.454 258.319C145.103 258.716 144.927 259.26 144.927 259.951V265H142.87ZM167.282 265V255.038H163.508V253.1H173.164V255.038H169.39V265H167.282ZM180.732 265H178.692V263.895C177.967 264.756 176.998 265.187 175.785 265.187C174.89 265.187 174.131 264.943 173.507 264.456C172.895 263.957 172.589 263.266 172.589 262.382C172.589 261.419 172.924 260.688 173.592 260.189C174.261 259.69 175.139 259.441 176.227 259.441C177.1 259.441 177.927 259.566 178.709 259.815V259.645C178.709 259.022 178.517 258.546 178.131 258.217C177.757 257.888 177.213 257.724 176.499 257.724C175.683 257.724 174.828 257.911 173.932 258.285L173.371 256.636C174.482 256.137 175.621 255.888 176.788 255.888C178.092 255.888 179.072 256.217 179.729 256.874C180.398 257.531 180.732 258.466 180.732 259.679V265ZM178.743 261.753V261.243C178.131 261.005 177.446 260.886 176.686 260.886C176.04 260.886 175.536 261.011 175.173 261.26C174.811 261.509 174.629 261.861 174.629 262.314C174.629 262.722 174.794 263.045 175.122 263.283C175.451 263.521 175.865 263.64 176.363 263.64C177.055 263.64 177.621 263.464 178.063 263.113C178.517 262.762 178.743 262.308 178.743 261.753ZM186.256 265.17C184.85 265.17 183.581 264.722 182.448 263.827L183.366 262.433C184.34 263.17 185.321 263.538 186.307 263.538C186.749 263.538 187.089 263.453 187.327 263.283C187.576 263.102 187.701 262.852 187.701 262.535C187.701 262.376 187.655 262.24 187.565 262.127C187.485 262.002 187.338 261.889 187.123 261.787C186.907 261.685 186.726 261.611 186.579 261.566C186.431 261.521 186.188 261.447 185.848 261.345L185.695 261.294C185.377 261.203 185.105 261.118 184.879 261.039C184.663 260.948 184.42 260.829 184.148 260.682C183.876 260.535 183.655 260.376 183.485 260.206C183.315 260.025 183.173 259.798 183.06 259.526C182.946 259.254 182.89 258.948 182.89 258.608C182.89 257.781 183.19 257.118 183.791 256.619C184.403 256.12 185.168 255.871 186.086 255.871C187.253 255.871 188.352 256.211 189.384 256.891L188.568 258.353C187.638 257.786 186.794 257.503 186.035 257.503C185.638 257.503 185.326 257.588 185.1 257.758C184.884 257.928 184.777 258.155 184.777 258.438C184.777 258.631 184.873 258.806 185.066 258.965C185.27 259.124 185.468 259.243 185.661 259.322C185.865 259.39 186.188 259.498 186.63 259.645C186.652 259.656 186.681 259.668 186.715 259.679C186.749 259.69 186.777 259.696 186.8 259.696C187.196 259.821 187.531 259.945 187.803 260.07C188.075 260.183 188.358 260.342 188.653 260.546C188.959 260.75 189.191 261.005 189.35 261.311C189.508 261.606 189.588 261.951 189.588 262.348C189.588 263.255 189.276 263.952 188.653 264.439C188.029 264.926 187.23 265.17 186.256 265.17ZM191.679 265V252.59H193.736V260.002L197.459 256.024H199.958L196.388 259.679L200.077 265H197.697L194.994 261.124L193.736 262.433V265H191.679ZM206.673 265.187C205.438 265.187 204.424 264.66 203.63 263.606V265H201.573V252.59H203.63V257.52C204.424 256.398 205.438 255.837 206.673 255.837C207.807 255.837 208.787 256.262 209.614 257.112C210.442 257.951 210.855 259.09 210.855 260.529C210.855 261.946 210.442 263.079 209.614 263.929C208.787 264.768 207.807 265.187 206.673 265.187ZM206.197 263.402C206.923 263.402 207.529 263.136 208.016 262.603C208.515 262.07 208.764 261.368 208.764 260.495C208.764 259.645 208.515 258.954 208.016 258.421C207.518 257.888 206.911 257.622 206.197 257.622C205.483 257.622 204.866 257.894 204.344 258.438C203.834 258.982 203.579 259.679 203.579 260.529C203.579 261.368 203.834 262.059 204.344 262.603C204.866 263.136 205.483 263.402 206.197 263.402ZM220.493 265H218.453V263.895C217.728 264.756 216.759 265.187 215.546 265.187C214.651 265.187 213.891 264.943 213.268 264.456C212.656 263.957 212.35 263.266 212.35 262.382C212.35 261.419 212.684 260.688 213.353 260.189C214.022 259.69 214.9 259.441 215.988 259.441C216.861 259.441 217.688 259.566 218.47 259.815V259.645C218.47 259.022 218.277 258.546 217.892 258.217C217.518 257.888 216.974 257.724 216.26 257.724C215.444 257.724 214.588 257.911 213.693 258.285L213.132 256.636C214.243 256.137 215.382 255.888 216.549 255.888C217.852 255.888 218.833 256.217 219.49 256.874C220.159 257.531 220.493 258.466 220.493 259.679V265ZM218.504 261.753V261.243C217.892 261.005 217.206 260.886 216.447 260.886C215.801 260.886 215.297 261.011 214.934 261.26C214.571 261.509 214.39 261.861 214.39 262.314C214.39 262.722 214.554 263.045 214.883 263.283C215.212 263.521 215.625 263.64 216.124 263.64C216.815 263.64 217.382 263.464 217.824 263.113C218.277 262.762 218.504 262.308 218.504 261.753ZM222.939 265V256.024H224.996V258.047C225.631 256.517 226.691 255.786 228.175 255.854V258.03H228.056C227.127 258.03 226.385 258.336 225.829 258.948C225.274 259.549 224.996 260.427 224.996 261.583V265H222.939Z" fill="#868686"/>
</g>
<path d="M375.25 247H317.75C314.574 247 312 249.239 312 252V266C312 268.761 314.574 271 317.75 271H375.25C378.426 271 381 268.761 381 266V252C381 249.239 378.426 247 375.25 247Z" fill="#191F26"/>
<path d="M375.25 247.75H317.75C315.051 247.75 312.863 249.653 312.863 252V266C312.863 268.347 315.051 270.25 317.75 270.25H375.25C377.949 270.25 380.138 268.347 380.138 266V252C380.138 249.653 377.949 247.75 375.25 247.75Z" stroke="#20272E" stroke-width="1.5"/>
<g filter="url(#filter15_d_29_124)">
<path d="M324.35 264V253.5H326.06L331.685 260.76V253.5H333.5V264H331.955L326.165 256.53V264H324.35ZM345.156 262.59C344.116 263.65 342.801 264.18 341.211 264.18C339.621 264.18 338.311 263.655 337.281 262.605C336.251 261.555 335.736 260.27 335.736 258.75C335.736 257.25 336.256 255.97 337.296 254.91C338.336 253.85 339.651 253.32 341.241 253.32C342.831 253.32 344.141 253.845 345.171 254.895C346.201 255.945 346.716 257.23 346.716 258.75C346.716 260.25 346.196 261.53 345.156 262.59ZM338.676 261.405C339.356 262.125 340.211 262.485 341.241 262.485C342.271 262.485 343.116 262.125 343.776 261.405C344.446 260.685 344.781 259.8 344.781 258.75C344.781 257.71 344.441 256.83 343.761 256.11C343.091 255.38 342.241 255.015 341.211 255.015C340.181 255.015 339.331 255.375 338.661 256.095C338.001 256.815 337.671 257.7 337.671 258.75C337.671 259.79 338.006 260.675 338.676 261.405ZM348.945 264V253.5H350.655L356.28 260.76V253.5H358.095V264H356.55L350.76 256.53V264H348.945ZM360.795 264V253.5H368.58V255.15H362.64V257.88H367.905V259.53H362.64V262.35H368.655V264H360.795Z" fill="#868686"/>
</g>
<path d="M442 177H428C425.239 177 423 179.239 423 182V196C423 198.761 425.239 201 428 201H442C444.761 201 447 198.761 447 196V182C447 179.239 444.761 177 442 177Z" fill="#191F26"/>
<path d="M442 177.5H428C425.515 177.5 423.5 179.515 423.5 182V196C423.5 198.485 425.515 200.5 428 200.5H442C444.485 200.5 446.5 198.485 446.5 196V182C446.5 179.515 444.485 177.5 442 177.5Z" stroke="#1F272E"/>
<g filter="url(#filter16_d_29_124)">
<path d="M455.51 195L460.746 183.015H462.684L467.92 195H465.71L464.503 192.127H458.876L457.652 195H455.51ZM459.641 190.274H463.738L461.681 185.514L459.641 190.274ZM469.723 195V186.024H471.78V187.418C472.494 186.364 473.429 185.837 474.585 185.837C475.582 185.837 476.364 186.149 476.931 186.772C477.497 187.395 477.781 188.234 477.781 189.288V195H475.724V189.9C475.724 189.197 475.554 188.659 475.214 188.285C474.885 187.9 474.415 187.707 473.803 187.707C473.202 187.707 472.715 187.905 472.341 188.302C471.967 188.699 471.78 189.243 471.78 189.934V195H469.723ZM483.274 195.153C481.551 195.153 480.69 194.275 480.69 192.518V187.792H479.551V186.024H480.69V183.559H482.747V186.024H485.161V187.792H482.747V192.195C482.747 192.943 483.115 193.317 483.852 193.317C484.294 193.317 484.719 193.215 485.127 193.011V194.694C484.583 195 483.965 195.153 483.274 195.153ZM487.271 184.647V182.692H489.481V184.647H487.271ZM487.356 195V186.024H489.413V195H487.356ZM491.762 190.801V188.778H496.794V190.801H491.762ZM497.578 195L502.814 183.015H504.752L509.988 195H507.778L506.571 192.127H500.944L499.72 195H497.578ZM501.709 190.274H505.806L503.749 185.514L501.709 190.274ZM512.029 195V183.1H520.886V185.004H514.12V188.251H520.121V190.155H514.12V195H512.029ZM523.185 195V183.1H525.276V189.084L530.937 183.1H533.504L528.557 188.217L533.725 195H531.192L527.129 189.645L525.276 191.549V195H523.185Z" fill="#868686"/>
</g>
<path d="M762.25 177H704.75C701.574 177 699 179.239 699 182V196C699 198.761 701.574 201 704.75 201H762.25C765.426 201 768 198.761 768 196V182C768 179.239 765.426 177 762.25 177Z" fill="#191F26"/>
<path d="M762.25 177.75H704.75C702.051 177.75 699.862 179.653 699.862 182V196C699.862 198.347 702.051 200.25 704.75 200.25H762.25C764.949 200.25 767.137 198.347 767.137 196V182C767.137 179.653 764.949 177.75 762.25 177.75Z" stroke="#20272E" stroke-width="1.5"/>
<g filter="url(#filter17_d_29_124)">
<path d="M711.35 194V183.5H713.06L718.685 190.76V183.5H720.5V194H718.955L713.165 186.53V194H711.35ZM732.156 192.59C731.116 193.65 729.801 194.18 728.211 194.18C726.621 194.18 725.311 193.655 724.281 192.605C723.251 191.555 722.736 190.27 722.736 188.75C722.736 187.25 723.256 185.97 724.296 184.91C725.336 183.85 726.651 183.32 728.241 183.32C729.831 183.32 731.141 183.845 732.171 184.895C733.201 185.945 733.716 187.23 733.716 188.75C733.716 190.25 733.196 191.53 732.156 192.59ZM725.676 191.405C726.356 192.125 727.211 192.485 728.241 192.485C729.271 192.485 730.116 192.125 730.776 191.405C731.446 190.685 731.781 189.8 731.781 188.75C731.781 187.71 731.441 186.83 730.761 186.11C730.091 185.38 729.241 185.015 728.211 185.015C727.181 185.015 726.331 185.375 725.661 186.095C725.001 186.815 724.671 187.7 724.671 188.75C724.671 189.79 725.006 190.675 725.676 191.405ZM735.945 194V183.5H737.655L743.28 190.76V183.5H745.095V194H743.55L737.76 186.53V194H735.945ZM747.795 194V183.5H755.58V185.15H749.64V187.88H754.905V189.53H749.64V192.35H755.655V194H747.795Z" fill="#868686"/>
</g>
<path d="M443 212H429C426.239 212 424 214.239 424 217V231C424 233.761 426.239 236 429 236H443C445.761 236 448 233.761 448 231V217C448 214.239 445.761 212 443 212Z" fill="#191F26"/>
<path d="M443 212.5H429C426.515 212.5 424.5 214.515 424.5 217V231C424.5 233.485 426.515 235.5 429 235.5H443C445.485 235.5 447.5 233.485 447.5 231V217C447.5 214.515 445.485 212.5 443 212.5Z" stroke="#1F272E"/>
<g filter="url(#filter18_d_29_124)">
<path d="M457.53 230V218.1H466.387V220.004H459.621V223.251H465.622V225.155H459.621V230H457.53ZM475.548 230H473.508V228.895C472.782 229.756 471.813 230.187 470.601 230.187C469.705 230.187 468.946 229.943 468.323 229.456C467.711 228.957 467.405 228.266 467.405 227.382C467.405 226.419 467.739 225.688 468.408 225.189C469.076 224.69 469.955 224.441 471.043 224.441C471.915 224.441 472.743 224.566 473.525 224.815V224.645C473.525 224.022 473.332 223.546 472.947 223.217C472.573 222.888 472.029 222.724 471.315 222.724C470.499 222.724 469.643 222.911 468.748 223.285L468.187 221.636C469.297 221.137 470.436 220.888 471.604 220.888C472.907 220.888 473.887 221.217 474.545 221.874C475.213 222.531 475.548 223.466 475.548 224.679V230ZM473.559 226.753V226.243C472.947 226.005 472.261 225.886 471.502 225.886C470.856 225.886 470.351 226.011 469.989 226.26C469.626 226.509 469.445 226.861 469.445 227.314C469.445 227.722 469.609 228.045 469.938 228.283C470.266 228.521 470.68 228.64 471.179 228.64C471.87 228.64 472.437 228.464 472.879 228.113C473.332 227.762 473.559 227.308 473.559 226.753ZM481.071 230.17C479.666 230.17 478.396 229.722 477.263 228.827L478.181 227.433C479.156 228.17 480.136 228.538 481.122 228.538C481.564 228.538 481.904 228.453 482.142 228.283C482.391 228.102 482.516 227.852 482.516 227.535C482.516 227.376 482.471 227.24 482.38 227.127C482.301 227.002 482.153 226.889 481.938 226.787C481.723 226.685 481.541 226.611 481.394 226.566C481.247 226.521 481.003 226.447 480.663 226.345L480.51 226.294C480.193 226.203 479.921 226.118 479.694 226.039C479.479 225.948 479.235 225.829 478.963 225.682C478.691 225.535 478.47 225.376 478.3 225.206C478.13 225.025 477.988 224.798 477.875 224.526C477.762 224.254 477.705 223.948 477.705 223.608C477.705 222.781 478.005 222.118 478.606 221.619C479.218 221.12 479.983 220.871 480.901 220.871C482.068 220.871 483.168 221.211 484.199 221.891L483.383 223.353C482.454 222.786 481.609 222.503 480.85 222.503C480.453 222.503 480.142 222.588 479.915 222.758C479.7 222.928 479.592 223.155 479.592 223.438C479.592 223.631 479.688 223.806 479.881 223.965C480.085 224.124 480.283 224.243 480.476 224.322C480.68 224.39 481.003 224.498 481.445 224.645C481.468 224.656 481.496 224.668 481.53 224.679C481.564 224.69 481.592 224.696 481.615 224.696C482.012 224.821 482.346 224.945 482.618 225.07C482.89 225.183 483.173 225.342 483.468 225.546C483.774 225.75 484.006 226.005 484.165 226.311C484.324 226.606 484.403 226.951 484.403 227.348C484.403 228.255 484.091 228.952 483.468 229.439C482.845 229.926 482.046 230.17 481.071 230.17ZM489.337 230.153C487.614 230.153 486.753 229.275 486.753 227.518V222.792H485.614V221.024H486.753V218.559H488.81V221.024H491.224V222.792H488.81V227.195C488.81 227.943 489.178 228.317 489.915 228.317C490.357 228.317 490.782 228.215 491.19 228.011V229.694C490.646 230 490.028 230.153 489.337 230.153ZM503.514 230.187C501.939 230.187 500.698 229.739 499.791 228.844C498.896 227.949 498.448 226.651 498.448 224.951V218.1H500.539V224.866C500.539 225.954 500.806 226.793 501.338 227.382C501.871 227.971 502.608 228.266 503.548 228.266C504.489 228.266 505.22 227.983 505.741 227.416C506.274 226.849 506.54 226.028 506.54 224.951V218.1H508.631V224.849C508.631 226.583 508.178 227.909 507.271 228.827C506.365 229.734 505.112 230.187 503.514 230.187ZM511.264 232.72V221.024H513.321V222.52C514.114 221.398 515.128 220.837 516.364 220.837C517.497 220.837 518.477 221.262 519.305 222.112C520.132 222.951 520.546 224.09 520.546 225.529C520.546 226.946 520.132 228.079 519.305 228.929C518.477 229.768 517.497 230.187 516.364 230.187C515.128 230.187 514.114 229.66 513.321 228.606V232.72H511.264ZM515.888 228.402C516.613 228.402 517.219 228.136 517.707 227.603C518.205 227.07 518.455 226.368 518.455 225.495C518.455 224.645 518.205 223.954 517.707 223.421C517.208 222.888 516.602 222.622 515.888 222.622C515.174 222.622 514.556 222.894 514.035 223.438C513.525 223.982 513.27 224.679 513.27 225.529C513.27 226.368 513.525 227.059 514.035 227.603C514.556 228.136 515.174 228.402 515.888 228.402ZM526.647 232.754C525.151 232.754 523.814 232.397 522.635 231.683L523.4 230.136C524.42 230.771 525.486 231.088 526.596 231.088C527.514 231.088 528.217 230.85 528.704 230.374C529.192 229.909 529.435 229.229 529.435 228.334V227.637C528.585 228.736 527.531 229.286 526.273 229.286C525.163 229.286 524.205 228.901 523.4 228.13C522.596 227.359 522.193 226.334 522.193 225.053C522.193 223.784 522.596 222.764 523.4 221.993C524.216 221.222 525.174 220.837 526.273 220.837C527.52 220.837 528.568 221.347 529.418 222.367V221.024H531.475V228.164C531.475 229.66 531.096 230.788 530.336 231.547C529.532 232.352 528.302 232.754 526.647 232.754ZM526.817 227.552C527.543 227.552 528.16 227.32 528.67 226.855C529.192 226.379 529.452 225.778 529.452 225.053C529.452 224.328 529.192 223.733 528.67 223.268C528.16 222.803 527.543 222.571 526.817 222.571C526.092 222.571 525.486 222.803 524.998 223.268C524.511 223.721 524.267 224.322 524.267 225.07C524.267 225.795 524.511 226.39 524.998 226.855C525.497 227.32 526.103 227.552 526.817 227.552ZM534.041 230V221.024H536.098V223.047C536.733 221.517 537.792 220.786 539.277 220.854V223.03H539.158C538.229 223.03 537.486 223.336 536.931 223.948C536.376 224.549 536.098 225.427 536.098 226.583V230H534.041ZM548.163 230H546.123V228.895C545.398 229.756 544.429 230.187 543.216 230.187C542.321 230.187 541.561 229.943 540.938 229.456C540.326 228.957 540.02 228.266 540.02 227.382C540.02 226.419 540.354 225.688 541.023 225.189C541.692 224.69 542.57 224.441 543.658 224.441C544.531 224.441 545.358 224.566 546.14 224.815V224.645C546.14 224.022 545.947 223.546 545.562 223.217C545.188 222.888 544.644 222.724 543.93 222.724C543.114 222.724 542.258 222.911 541.363 223.285L540.802 221.636C541.913 221.137 543.052 220.888 544.219 220.888C545.522 220.888 546.503 221.217 547.16 221.874C547.829 222.531 548.163 223.466 548.163 224.679V230ZM546.174 226.753V226.243C545.562 226.005 544.876 225.886 544.117 225.886C543.471 225.886 542.967 226.011 542.604 226.26C542.241 226.509 542.06 226.861 542.06 227.314C542.06 227.722 542.224 228.045 542.553 228.283C542.882 228.521 543.295 228.64 543.794 228.64C544.485 228.64 545.052 228.464 545.494 228.113C545.947 227.762 546.174 227.308 546.174 226.753ZM554.315 230.187C553.193 230.187 552.219 229.768 551.391 228.929C550.564 228.079 550.15 226.934 550.15 225.495C550.15 224.067 550.558 222.934 551.374 222.095C552.202 221.256 553.182 220.837 554.315 220.837C555.539 220.837 556.559 221.364 557.375 222.418V217.59H559.432V230H557.375V228.504C556.582 229.626 555.562 230.187 554.315 230.187ZM552.972 227.603C553.482 228.136 554.094 228.402 554.808 228.402C555.522 228.402 556.134 228.13 556.644 227.586C557.154 227.042 557.409 226.345 557.409 225.495C557.409 224.656 557.154 223.971 556.644 223.438C556.134 222.894 555.522 222.622 554.808 222.622C554.083 222.622 553.471 222.888 552.972 223.421C552.474 223.942 552.224 224.645 552.224 225.529C552.224 226.379 552.474 227.07 552.972 227.603ZM566.112 230.204C564.797 230.204 563.698 229.768 562.814 228.895C561.941 228.022 561.505 226.895 561.505 225.512C561.505 224.209 561.919 223.104 562.746 222.197C563.573 221.29 564.622 220.837 565.891 220.837C567.251 220.837 568.305 221.302 569.053 222.231C569.812 223.149 570.192 224.294 570.192 225.665C570.192 225.914 570.181 226.107 570.158 226.243H563.562C563.675 226.957 563.964 227.518 564.429 227.926C564.894 228.323 565.466 228.521 566.146 228.521C567.03 228.521 567.84 228.164 568.577 227.45L569.784 228.521C568.855 229.643 567.631 230.204 566.112 230.204ZM563.545 224.883H568.152C568.084 224.192 567.852 223.625 567.455 223.183C567.058 222.741 566.531 222.52 565.874 222.52C565.251 222.52 564.729 222.741 564.31 223.183C563.891 223.614 563.636 224.18 563.545 224.883Z" fill="#868686"/>
</g>
<path d="M763.25 212H705.75C702.574 212 700 214.239 700 217V231C700 233.761 702.574 236 705.75 236H763.25C766.426 236 769 233.761 769 231V217C769 214.239 766.426 212 763.25 212Z" fill="#191F26"/>
<path d="M763.25 212.75H705.75C703.051 212.75 700.862 214.653 700.862 217V231C700.862 233.347 703.051 235.25 705.75 235.25H763.25C765.949 235.25 768.137 233.347 768.137 231V217C768.137 214.653 765.949 212.75 763.25 212.75Z" stroke="#20272E" stroke-width="1.5"/>
<g filter="url(#filter19_d_29_124)">
<path d="M712.35 229V218.5H714.06L719.685 225.76V218.5H721.5V229H719.955L714.165 221.53V229H712.35ZM733.156 227.59C732.116 228.65 730.801 229.18 729.211 229.18C727.621 229.18 726.311 228.655 725.281 227.605C724.251 226.555 723.736 225.27 723.736 223.75C723.736 222.25 724.256 220.97 725.296 219.91C726.336 218.85 727.651 218.32 729.241 218.32C730.831 218.32 732.141 218.845 733.171 219.895C734.201 220.945 734.716 222.23 734.716 223.75C734.716 225.25 734.196 226.53 733.156 227.59ZM726.676 226.405C727.356 227.125 728.211 227.485 729.241 227.485C730.271 227.485 731.116 227.125 731.776 226.405C732.446 225.685 732.781 224.8 732.781 223.75C732.781 222.71 732.441 221.83 731.761 221.11C731.091 220.38 730.241 220.015 729.211 220.015C728.181 220.015 727.331 220.375 726.661 221.095C726.001 221.815 725.671 222.7 725.671 223.75C725.671 224.79 726.006 225.675 726.676 226.405ZM736.945 229V218.5H738.655L744.28 225.76V218.5H746.095V229H744.55L738.76 221.53V229H736.945ZM748.795 229V218.5H756.58V220.15H750.64V222.88H755.905V224.53H750.64V227.35H756.655V229H748.795Z" fill="#868686"/>
</g>
<g filter="url(#filter20_d_29_124)">
<path d="M54 283H40C37.2386 283 35 285.239 35 288V302C35 304.761 37.2386 307 40 307H54C56.7614 307 59 304.761 59 302V288C59 285.239 56.7614 283 54 283Z" fill="#0CEDF7"/>
</g>
<path d="M41.264 293.818L45.703 298.257L47.983 295.977L52.783 291.177" stroke="#11171D" stroke-width="3"/>
<g filter="url(#filter21_d_29_124)">
<path d="M75.055 301.204C73.3323 301.204 71.893 300.615 70.737 299.436C69.581 298.246 69.003 296.784 69.003 295.05C69.003 293.327 69.581 291.871 70.737 290.681C71.893 289.491 73.3607 288.896 75.14 288.896C76.1713 288.896 77.044 289.055 77.758 289.372C78.4833 289.689 79.1633 290.148 79.798 290.749L78.455 292.296C77.3897 291.31 76.279 290.817 75.123 290.817C73.9897 290.817 73.049 291.225 72.301 292.041C71.5643 292.857 71.196 293.86 71.196 295.05C71.196 296.229 71.57 297.232 72.318 298.059C73.066 298.875 74.001 299.283 75.123 299.283C75.803 299.283 76.4037 299.158 76.925 298.909C77.4463 298.648 77.9847 298.257 78.54 297.736L79.883 299.096C79.2143 299.799 78.506 300.326 77.758 300.677C77.01 301.028 76.109 301.204 75.055 301.204ZM84.9368 301.187C83.9394 301.187 83.1574 300.875 82.5908 300.252C82.0241 299.629 81.7408 298.79 81.7408 297.736V292.024H83.7978V297.124C83.7978 297.827 83.9621 298.371 84.2908 298.756C84.6308 299.13 85.1068 299.317 85.7188 299.317C86.3194 299.317 86.8068 299.119 87.1808 298.722C87.5548 298.325 87.7418 297.781 87.7418 297.09V292.024H89.7988V301H87.7418V299.606C87.0278 300.66 86.0928 301.187 84.9368 301.187ZM92.3848 301V292.024H94.4418V294.047C95.0764 292.517 96.1361 291.786 97.6208 291.854V294.03H97.5018C96.5724 294.03 95.8301 294.336 95.2748 294.948C94.7194 295.549 94.4418 296.427 94.4418 297.583V301H92.3848ZM102.484 301.17C101.079 301.17 99.8096 300.722 98.6762 299.827L99.5942 298.433C100.569 299.17 101.549 299.538 102.535 299.538C102.977 299.538 103.317 299.453 103.555 299.283C103.805 299.102 103.929 298.852 103.929 298.535C103.929 298.376 103.884 298.24 103.793 298.127C103.714 298.002 103.567 297.889 103.351 297.787C103.136 297.685 102.955 297.611 102.807 297.566C102.66 297.521 102.416 297.447 102.076 297.345L101.923 297.294C101.606 297.203 101.334 297.118 101.107 297.039C100.892 296.948 100.648 296.829 100.376 296.682C100.104 296.535 99.8832 296.376 99.7132 296.206C99.5432 296.025 99.4016 295.798 99.2882 295.526C99.1749 295.254 99.1182 294.948 99.1182 294.608C99.1182 293.781 99.4186 293.118 100.019 292.619C100.631 292.12 101.396 291.871 102.314 291.871C103.482 291.871 104.581 292.211 105.612 292.891L104.796 294.353C103.867 293.786 103.023 293.503 102.263 293.503C101.867 293.503 101.555 293.588 101.328 293.758C101.113 293.928 101.005 294.155 101.005 294.438C101.005 294.631 101.102 294.806 101.294 294.965C101.498 295.124 101.697 295.243 101.889 295.322C102.093 295.39 102.416 295.498 102.858 295.645C102.881 295.656 102.909 295.668 102.943 295.679C102.977 295.69 103.006 295.696 103.028 295.696C103.425 295.821 103.759 295.945 104.031 296.07C104.303 296.183 104.587 296.342 104.881 296.546C105.187 296.75 105.42 297.005 105.578 297.311C105.737 297.606 105.816 297.951 105.816 298.348C105.816 299.255 105.505 299.952 104.881 300.439C104.258 300.926 103.459 301.17 102.484 301.17ZM112.174 301.204C110.814 301.204 109.681 300.751 108.774 299.844C107.868 298.937 107.414 297.832 107.414 296.529C107.414 295.226 107.873 294.121 108.791 293.214C109.709 292.296 110.848 291.837 112.208 291.837C113.568 291.837 114.702 292.29 115.608 293.197C116.526 294.104 116.985 295.214 116.985 296.529C116.985 297.821 116.526 298.926 115.608 299.844C114.69 300.751 113.546 301.204 112.174 301.204ZM112.208 299.419C113.024 299.419 113.682 299.141 114.18 298.586C114.679 298.031 114.928 297.345 114.928 296.529C114.928 295.724 114.668 295.044 114.146 294.489C113.625 293.922 112.968 293.639 112.174 293.639C111.37 293.639 110.718 293.917 110.219 294.472C109.721 295.027 109.471 295.713 109.471 296.529C109.471 297.322 109.732 298.002 110.253 298.569C110.775 299.136 111.426 299.419 112.208 299.419ZM119.08 301V292.024H121.137V294.047C121.772 292.517 122.831 291.786 124.316 291.854V294.03H124.197C123.268 294.03 122.525 294.336 121.97 294.948C121.415 295.549 121.137 296.427 121.137 297.583V301H119.08ZM136.962 301.204C135.24 301.204 133.8 300.615 132.644 299.436C131.488 298.246 130.91 296.784 130.91 295.05C130.91 293.327 131.488 291.871 132.644 290.681C133.8 289.491 135.268 288.896 137.047 288.896C138.079 288.896 138.951 289.055 139.665 289.372C140.391 289.689 141.071 290.148 141.705 290.749L140.362 292.296C139.297 291.31 138.186 290.817 137.03 290.817C135.897 290.817 134.956 291.225 134.208 292.041C133.472 292.857 133.103 293.86 133.103 295.05C133.103 296.229 133.477 297.232 134.225 298.059C134.973 298.875 135.908 299.283 137.03 299.283C137.71 299.283 138.311 299.158 138.832 298.909C139.354 298.648 139.892 298.257 140.447 297.736L141.79 299.096C141.122 299.799 140.413 300.326 139.665 300.677C138.917 301.028 138.016 301.204 136.962 301.204ZM143.75 301V288.59H145.807V293.418C146.521 292.364 147.456 291.837 148.612 291.837C149.609 291.837 150.391 292.149 150.958 292.772C151.525 293.395 151.808 294.234 151.808 295.288V301H149.751V295.9C149.751 295.197 149.581 294.659 149.241 294.285C148.912 293.9 148.442 293.707 147.83 293.707C147.229 293.707 146.742 293.905 146.368 294.302C145.994 294.699 145.807 295.243 145.807 295.934V301H143.75ZM158.406 301.204C157.091 301.204 155.992 300.768 155.108 299.895C154.235 299.022 153.799 297.895 153.799 296.512C153.799 295.209 154.213 294.104 155.04 293.197C155.867 292.29 156.916 291.837 158.185 291.837C159.545 291.837 160.599 292.302 161.347 293.231C162.106 294.149 162.486 295.294 162.486 296.665C162.486 296.914 162.475 297.107 162.452 297.243H155.856C155.969 297.957 156.258 298.518 156.723 298.926C157.188 299.323 157.76 299.521 158.44 299.521C159.324 299.521 160.134 299.164 160.871 298.45L162.078 299.521C161.149 300.643 159.925 301.204 158.406 301.204ZM155.839 295.883H160.446C160.378 295.192 160.146 294.625 159.749 294.183C159.352 293.741 158.825 293.52 158.168 293.52C157.545 293.52 157.023 293.741 156.604 294.183C156.185 294.614 155.93 295.18 155.839 295.883ZM168.7 301.204C167.374 301.204 166.269 300.751 165.385 299.844C164.501 298.937 164.059 297.832 164.059 296.529C164.059 295.237 164.501 294.132 165.385 293.214C166.28 292.296 167.391 291.837 168.717 291.837C170.167 291.837 171.363 292.353 172.304 293.384L171.029 294.761C170.315 294.013 169.538 293.639 168.7 293.639C167.963 293.639 167.345 293.922 166.847 294.489C166.359 295.044 166.116 295.724 166.116 296.529C166.116 297.345 166.365 298.031 166.864 298.586C167.374 299.141 168.02 299.419 168.802 299.419C169.629 299.419 170.405 299.045 171.131 298.297L172.372 299.521C171.884 300.065 171.352 300.484 170.774 300.779C170.207 301.062 169.516 301.204 168.7 301.204ZM174.264 301V288.59H176.321V296.002L180.044 292.024H182.543L178.973 295.679L182.662 301H180.282L177.579 297.124L176.321 298.433V301H174.264Z" fill="#F5F5F5"/>
</g>
<path d="M375.333 283H318.667C315.537 283 313 285.239 313 288V302C313 304.761 315.537 307 318.667 307H375.333C378.463 307 381 304.761 381 302V288C381 285.239 378.463 283 375.333 283Z" fill="#191F26"/>
<path d="M375.333 283.75H318.667C316.007 283.75 313.85 285.653 313.85 288V302C313.85 304.347 316.007 306.25 318.667 306.25H375.333C377.994 306.25 380.15 304.347 380.15 302V288C380.15 285.653 377.994 283.75 375.333 283.75Z" stroke="#20272E" stroke-width="1.5"/>
<g filter="url(#filter22_d_29_124)">
<path d="M323.44 301V289.8H325.264L331.264 297.544V289.8H333.2V301H331.552L325.376 293.032V301H323.44ZM345.633 299.496C344.523 300.627 343.121 301.192 341.425 301.192C339.729 301.192 338.331 300.632 337.233 299.512C336.134 298.392 335.585 297.021 335.585 295.4C335.585 293.8 336.139 292.435 337.249 291.304C338.358 290.173 339.761 289.608 341.457 289.608C343.153 289.608 344.55 290.168 345.649 291.288C346.747 292.408 347.297 293.779 347.297 295.4C347.297 297 346.742 298.365 345.633 299.496ZM338.721 298.232C339.446 299 340.358 299.384 341.457 299.384C342.555 299.384 343.457 299 344.161 298.232C344.875 297.464 345.233 296.52 345.233 295.4C345.233 294.291 344.87 293.352 344.145 292.584C343.43 291.805 342.523 291.416 341.425 291.416C340.326 291.416 339.419 291.8 338.705 292.568C338.001 293.336 337.649 294.28 337.649 295.4C337.649 296.509 338.006 297.453 338.721 298.232ZM349.674 301V289.8H351.498L357.498 297.544V289.8H359.434V301H357.786L351.61 293.032V301H349.674ZM362.315 301V289.8H370.619V291.56H364.283V294.472H369.899V296.232H364.283V299.24H370.699V301H362.315Z" fill="#868686"/>
</g>
<g filter="url(#filter23_d_29_124)">
<path d="M54 318H40C37.2386 318 35 320.239 35 323V337C35 339.761 37.2386 342 40 342H54C56.7614 342 59 339.761 59 337V323C59 320.239 56.7614 318 54 318Z" fill="#0CEDF7"/>
</g>
<path d="M41.264 328.818L45.703 333.257L47.983 330.977L52.783 326.177" stroke="#11171D" stroke-width="3"/>
<g filter="url(#filter24_d_29_124)">
<path d="M75.055 336.204C73.3323 336.204 71.893 335.615 70.737 334.436C69.581 333.246 69.003 331.784 69.003 330.05C69.003 328.327 69.581 326.871 70.737 325.681C71.893 324.491 73.3607 323.896 75.14 323.896C76.1713 323.896 77.044 324.055 77.758 324.372C78.4833 324.689 79.1633 325.148 79.798 325.749L78.455 327.296C77.3897 326.31 76.279 325.817 75.123 325.817C73.9897 325.817 73.049 326.225 72.301 327.041C71.5643 327.857 71.196 328.86 71.196 330.05C71.196 331.229 71.57 332.232 72.318 333.059C73.066 333.875 74.001 334.283 75.123 334.283C75.803 334.283 76.4037 334.158 76.925 333.909C77.4463 333.648 77.9847 333.257 78.54 332.736L79.883 334.096C79.2143 334.799 78.506 335.326 77.758 335.677C77.01 336.028 76.109 336.204 75.055 336.204ZM85.9438 336.204C84.5838 336.204 83.4504 335.751 82.5438 334.844C81.6371 333.937 81.1838 332.832 81.1838 331.529C81.1838 330.226 81.6428 329.121 82.5608 328.214C83.4788 327.296 84.6178 326.837 85.9778 326.837C87.3378 326.837 88.4711 327.29 89.3778 328.197C90.2958 329.104 90.7548 330.214 90.7548 331.529C90.7548 332.821 90.2958 333.926 89.3778 334.844C88.4598 335.751 87.3151 336.204 85.9438 336.204ZM85.9778 334.419C86.7938 334.419 87.4511 334.141 87.9498 333.586C88.4484 333.031 88.6978 332.345 88.6978 331.529C88.6978 330.724 88.4371 330.044 87.9158 329.489C87.3944 328.922 86.7371 328.639 85.9438 328.639C85.1391 328.639 84.4874 328.917 83.9888 329.472C83.4901 330.027 83.2408 330.713 83.2408 331.529C83.2408 332.322 83.5014 333.002 84.0228 333.569C84.5441 334.136 85.1958 334.419 85.9778 334.419ZM95.9436 336.187C94.9463 336.187 94.1643 335.875 93.5976 335.252C93.031 334.629 92.7476 333.79 92.7476 332.736V327.024H94.8046V332.124C94.8046 332.827 94.969 333.371 95.2976 333.756C95.6376 334.13 96.1136 334.317 96.7256 334.317C97.3263 334.317 97.8136 334.119 98.1876 333.722C98.5616 333.325 98.7486 332.781 98.7486 332.09V327.024H100.806V336H98.7486V334.606C98.0346 335.66 97.0996 336.187 95.9436 336.187ZM103.392 336V327.024H105.449V328.418C106.163 327.364 107.098 326.837 108.254 326.837C109.251 326.837 110.033 327.149 110.6 327.772C111.166 328.395 111.45 329.234 111.45 330.288V336H109.393V330.9C109.393 330.197 109.223 329.659 108.883 329.285C108.554 328.9 108.084 328.707 107.472 328.707C106.871 328.707 106.384 328.905 106.01 329.302C105.636 329.699 105.449 330.243 105.449 330.934V336H103.392ZM116.943 336.153C115.22 336.153 114.359 335.275 114.359 333.518V328.792H113.22V327.024H114.359V324.559H116.416V327.024H118.83V328.792H116.416V333.195C116.416 333.943 116.784 334.317 117.521 334.317C117.963 334.317 118.388 334.215 118.796 334.011V335.694C118.252 336 117.634 336.153 116.943 336.153ZM125.221 336L130.457 324.015H132.395L137.631 336H135.421L134.214 333.127H128.587L127.363 336H125.221ZM129.352 331.274H133.449L131.392 326.514L129.352 331.274ZM139.434 336V327.024H141.491V328.384C142.239 327.353 143.151 326.837 144.228 326.837C145.474 326.837 146.364 327.364 146.897 328.418C147.701 327.364 148.716 326.837 149.94 326.837C150.926 326.837 151.696 327.137 152.252 327.738C152.807 328.339 153.085 329.183 153.085 330.271V336H151.028V330.9C151.028 330.186 150.869 329.642 150.552 329.268C150.234 328.894 149.787 328.707 149.209 328.707C148.631 328.707 148.166 328.905 147.815 329.302C147.463 329.687 147.288 330.231 147.288 330.934V336H145.231V330.883C145.231 330.192 145.072 329.659 144.755 329.285C144.437 328.9 143.99 328.707 143.412 328.707C142.834 328.707 142.369 328.911 142.018 329.319C141.666 329.716 141.491 330.26 141.491 330.951V336H139.434ZM155.587 336V327.024H157.644V328.384C158.392 327.353 159.304 326.837 160.381 326.837C161.628 326.837 162.517 327.364 163.05 328.418C163.855 327.364 164.869 326.837 166.093 326.837C167.079 326.837 167.85 327.137 168.405 327.738C168.96 328.339 169.238 329.183 169.238 330.271V336H167.181V330.9C167.181 330.186 167.022 329.642 166.705 329.268C166.388 328.894 165.94 328.707 165.362 328.707C164.784 328.707 164.319 328.905 163.968 329.302C163.617 329.687 163.441 330.231 163.441 330.934V336H161.384V330.883C161.384 330.192 161.225 329.659 160.908 329.285C160.591 328.9 160.143 328.707 159.565 328.707C158.987 328.707 158.522 328.911 158.171 329.319C157.82 329.716 157.644 330.26 157.644 330.951V336H155.587ZM176.007 336.204C174.647 336.204 173.514 335.751 172.607 334.844C171.701 333.937 171.247 332.832 171.247 331.529C171.247 330.226 171.706 329.121 172.624 328.214C173.542 327.296 174.681 326.837 176.041 326.837C177.401 326.837 178.535 327.29 179.441 328.197C180.359 329.104 180.818 330.214 180.818 331.529C180.818 332.821 180.359 333.926 179.441 334.844C178.523 335.751 177.379 336.204 176.007 336.204ZM176.041 334.419C176.857 334.419 177.515 334.141 178.013 333.586C178.512 333.031 178.761 332.345 178.761 331.529C178.761 330.724 178.501 330.044 177.979 329.489C177.458 328.922 176.801 328.639 176.007 328.639C175.203 328.639 174.551 328.917 174.052 329.472C173.554 330.027 173.304 330.713 173.304 331.529C173.304 332.322 173.565 333.002 174.086 333.569C174.608 334.136 175.259 334.419 176.041 334.419Z" fill="#F5F5F5"/>
</g>
<path d="M375.333 318H318.667C315.537 318 313 320.239 313 323V337C313 339.761 315.537 342 318.667 342H375.333C378.463 342 381 339.761 381 337V323C381 320.239 378.463 318 375.333 318Z" fill="#191F26"/>
<path d="M375.333 318.75H318.667C316.007 318.75 313.85 320.653 313.85 323V337C313.85 339.347 316.007 341.25 318.667 341.25H375.333C377.994 341.25 380.15 339.347 380.15 337V323C380.15 320.653 377.994 318.75 375.333 318.75Z" stroke="#20272E" stroke-width="1.5"/>
<g filter="url(#filter25_d_29_124)">
<path d="M323.44 336V324.8H325.264L331.264 332.544V324.8H333.2V336H331.552L325.376 328.032V336H323.44ZM345.633 334.496C344.523 335.627 343.121 336.192 341.425 336.192C339.729 336.192 338.331 335.632 337.233 334.512C336.134 333.392 335.585 332.021 335.585 330.4C335.585 328.8 336.139 327.435 337.249 326.304C338.358 325.173 339.761 324.608 341.457 324.608C343.153 324.608 344.55 325.168 345.649 326.288C346.747 327.408 347.297 328.779 347.297 330.4C347.297 332 346.742 333.365 345.633 334.496ZM338.721 333.232C339.446 334 340.358 334.384 341.457 334.384C342.555 334.384 343.457 334 344.161 333.232C344.875 332.464 345.233 331.52 345.233 330.4C345.233 329.291 344.87 328.352 344.145 327.584C343.43 326.805 342.523 326.416 341.425 326.416C340.326 326.416 339.419 326.8 338.705 327.568C338.001 328.336 337.649 329.28 337.649 330.4C337.649 331.509 338.006 332.453 338.721 333.232ZM349.674 336V324.8H351.498L357.498 332.544V324.8H359.434V336H357.786L351.61 328.032V336H349.674ZM362.315 336V324.8H370.619V326.56H364.283V329.472H369.899V331.232H364.283V334.24H370.699V336H362.315Z" fill="#868686"/>
</g>
<defs>
<filter id="filter0_d_29_124" x="12.0001" y="106" width="782.755" height="400.518" filterUnits="userSpaceOnUse" color-interpolation-filters="sRGB">
<feFlood flood-opacity="0" result="BackgroundImageFix"/>
<feColorMatrix in="SourceAlpha" type="matrix" values="0 0 0 0 0 0 0 0 0 0 0 0 0 0 0 0 0 0 127 0" result="hardAlpha"/>
<feOffset dy="1"/>
<feGaussianBlur stdDeviation="1.5"/>
<feColorMatrix type="matrix" values="0 0 0 0 0 0 0 0 0 0 0 0 0 0 0 0 0 0 0.161 0"/>
<feBlend mode="normal" in2="BackgroundImageFix" result="effect1_dropShadow_29_124"/>
<feBlend mode="normal" in="SourceGraphic" in2="effect1_dropShadow_29_124" result="shape"/>
</filter>
<filter id="filter1_d_29_124" x="13" y="55" width="780" height="4" filterUnits="userSpaceOnUse" color-interpolation-filters="sRGB">
<feFlood flood-opacity="0" result="BackgroundImageFix"/>
<feColorMatrix in="SourceAlpha" type="matrix" values="0 0 0 0 0 0 0 0 0 0 0 0 0 0 0 0 0 0 127 0" result="hardAlpha"/>
<feOffset dy="1"/>
<feGaussianBlur stdDeviation="0.5"/>
<feColorMatrix type="matrix" values="0 0 0 0 0.0666667 0 0 0 0 0.0901961 0 0 0 0 0.113725 0 0 0 1 0"/>
<feBlend mode="normal" in2="BackgroundImageFix" result="effect1_dropShadow_29_124"/>
<feBlend mode="normal" in="SourceGraphic" in2="effect1_dropShadow_29_124" result="shape"/>
</filter>
<filter id="filter2_d_29_124" x="357.336" y="16.63" width="60.043" height="27.06" filterUnits="userSpaceOnUse" color-interpolation-filters="sRGB">
<feFlood flood-opacity="0" result="BackgroundImageFix"/>
<feColorMatrix in="SourceAlpha" type="matrix" values="0 0 0 0 0 0 0 0 0 0 0 0 0 0 0 0 0 0 127 0" result="hardAlpha"/>
<feOffset dy="1"/>
<feGaussianBlur stdDeviation="3.25"/>
<feComposite in2="hardAlpha" operator="out"/>
<feColorMatrix type="matrix" values="0 0 0 0 0.960784 0 0 0 0 0.960784 0 0 0 0 0.960784 0 0 0 0.6 0"/>
<feBlend mode="normal" in2="BackgroundImageFix" result="effect1_dropShadow_29_124"/>
<feBlend mode="normal" in="SourceGraphic" in2="effect1_dropShadow_29_124" result="shape"/>
</filter>
<filter id="filter3_d_29_124" x="406.678" y="19.126" width="38.215" height="23.602" filterUnits="userSpaceOnUse" color-interpolation-filters="sRGB">
<feFlood flood-opacity="0" result="BackgroundImageFix"/>
<feColorMatrix in="SourceAlpha" type="matrix" values="0 0 0 0 0 0 0 0 0 0 0 0 0 0 0 0 0 0 127 0" result="hardAlpha"/>
<feOffset/>
<feGaussianBlur stdDeviation="3.25"/>
<feColorMatrix type="matrix" values="0 0 0 0 0.0470588 0 0 0 0 0.929412 0 0 0 0 0.968627 0 0 0 0.6 0"/>
<feBlend mode="normal" in2="BackgroundImageFix" result="effect1_dropShadow_29_124"/>
<feBlend mode="normal" in="SourceGraphic" in2="effect1_dropShadow_29_124" result="shape"/>
</filter>
<filter id="filter4_d_29_124" x="377.012" y="73.36" width="51.3018" height="26.356" filterUnits="userSpaceOnUse" color-interpolation-filters="sRGB">
<feFlood flood-opacity="0" result="BackgroundImageFix"/>
<feColorMatrix in="SourceAlpha" type="matrix" values="0 0 0 0 0 0 0 0 0 0 0 0 0 0 0 0 0 0 127 0" result="hardAlpha"/>
<feOffset dy="1"/>
<feGaussianBlur stdDeviation="3.25"/>
<feComposite in2="hardAlpha" operator="out"/>
<feColorMatrix type="matrix" values="0 0 0 0 0.52549 0 0 0 0 0.52549 0 0 0 0 0.52549 0 0 0 0.6 0"/>
<feBlend mode="normal" in2="BackgroundImageFix" result="effect1_dropShadow_29_124"/>
<feBlend mode="normal" in="SourceGraphic" in2="effect1_dropShadow_29_124" result="shape"/>
</filter>
<filter id="filter5_d_29_124" x="361.5" y="101.5" width="82" height="13" filterUnits="userSpaceOnUse" color-interpolation-filters="sRGB">
<feFlood flood-opacity="0" result="BackgroundImageFix"/>
<feColorMatrix in="SourceAlpha" type="matrix" values="0 0 0 0 0 0 0 0 0 0 0 0 0 0 0 0 0 0 127 0" result="hardAlpha"/>
<feOffset/>
<feGaussianBlur stdDeviation="2.75"/>
<feComposite in2="hardAlpha" operator="out"/>
<feColorMatrix type="matrix" values="0 0 0 0 0.0470588 0 0 0 0 0.929412 0 0 0 0 0.968627 0 0 0 0.6 0"/>
<feBlend mode="normal" in2="BackgroundImageFix" result="effect1_dropShadow_29_124"/>
<feBlend mode="normal" in="SourceGraphic" in2="effect1_dropShadow_29_124" result="shape"/>
</filter>
<filter id="filter6_d_29_124" x="31.512" y="130.86" width="128.847" height="26.056" filterUnits="userSpaceOnUse" color-interpolation-filters="sRGB">
<feFlood flood-opacity="0" result="BackgroundImageFix"/>
<feColorMatrix in="SourceAlpha" type="matrix" values="0 0 0 0 0 0 0 0 0 0 0 0 0 0 0 0 0 0 127 0" result="hardAlpha"/>
<feOffset dy="1"/>
<feGaussianBlur stdDeviation="2.5"/>
<feComposite in2="hardAlpha" operator="out"/>
<feColorMatrix type="matrix" values="0 0 0 0 0.960784 0 0 0 0 0.960784 0 0 0 0 0.960784 0 0 0 0.3 0"/>
<feBlend mode="normal" in2="BackgroundImageFix" result="effect1_dropShadow_29_124"/>
<feBlend mode="normal" in="SourceGraphic" in2="effect1_dropShadow_29_124" result="shape"/>
</filter>
<filter id="filter7_d_29_124" x="32" y="160" width="129" height="10" filterUnits="userSpaceOnUse" color-interpolation-filters="sRGB">
<feFlood flood-opacity="0" result="BackgroundImageFix"/>
<feColorMatrix in="SourceAlpha" type="matrix" values="0 0 0 0 0 0 0 0 0 0 0 0 0 0 0 0 0 0 127 0" result="hardAlpha"/>
<feOffset/>
<feGaussianBlur stdDeviation="2"/>
<feComposite in2="hardAlpha" operator="out"/>
<feColorMatrix type="matrix" values="0 0 0 0 0.0470588 0 0 0 0 0.929412 0 0 0 0 0.968627 0 0 0 1 0"/>
<feBlend mode="normal" in2="BackgroundImageFix" result="effect1_dropShadow_29_124"/>
<feBlend mode="normal" in="SourceGraphic" in2="effect1_dropShadow_29_124" result="shape"/>
</filter>
<filter id="filter8_d_29_124" x="419.954" y="130.734" width="141.79" height="26.2" filterUnits="userSpaceOnUse" color-interpolation-filters="sRGB">
<feFlood flood-opacity="0" result="BackgroundImageFix"/>
<feColorMatrix in="SourceAlpha" type="matrix" values="0 0 0 0 0 0 0 0 0 0 0 0 0 0 0 0 0 0 127 0" result="hardAlpha"/>
<feOffset dy="1"/>
<feGaussianBlur stdDeviation="2.5"/>
<feComposite in2="hardAlpha" operator="out"/>
<feColorMatrix type="matrix" values="0 0 0 0 0.960784 0 0 0 0 0.960784 0 0 0 0 0.960784 0 0 0 0.3 0"/>
<feBlend mode="normal" in2="BackgroundImageFix" result="effect1_dropShadow_29_124"/>
<feBlend mode="normal" in="SourceGraphic" in2="effect1_dropShadow_29_124" result="shape"/>
</filter>
<filter id="filter9_d_29_124" x="421" y="160" width="141" height="10" filterUnits="userSpaceOnUse" color-interpolation-filters="sRGB">
<feFlood flood-opacity="0" result="BackgroundImageFix"/>
<feColorMatrix in="SourceAlpha" type="matrix" values="0 0 0 0 0 0 0 0 0 0 0 0 0 0 0 0 0 0 127 0" result="hardAlpha"/>
<feOffset/>
<feGaussianBlur stdDeviation="2"/>
<feComposite in2="hardAlpha" operator="out"/>
<feColorMatrix type="matrix" values="0 0 0 0 0.0470588 0 0 0 0 0.929412 0 0 0 0 0.968627 0 0 0 1 0"/>
<feBlend mode="normal" in2="BackgroundImageFix" result="effect1_dropShadow_29_124"/>
<feBlend mode="normal" in="SourceGraphic" in2="effect1_dropShadow_29_124" result="shape"/>
</filter>
<filter id="filter10_d_29_124" x="65.105" y="180.1" width="55.6886" height="20.104" filterUnits="userSpaceOnUse" color-interpolation-filters="sRGB">
<feFlood flood-opacity="0" result="BackgroundImageFix"/>
<feColorMatrix in="SourceAlpha" type="matrix" values="0 0 0 0 0 0 0 0 0 0 0 0 0 0 0 0 0 0 127 0" result="hardAlpha"/>
<feOffset dy="1"/>
<feGaussianBlur stdDeviation="2"/>
<feColorMatrix type="matrix" values="0 0 0 0 0.960784 0 0 0 0 0.960784 0 0 0 0 0.960784 0 0 0 0.169 0"/>
<feBlend mode="normal" in2="BackgroundImageFix" result="effect1_dropShadow_29_124"/>
<feBlend mode="normal" in="SourceGraphic" in2="effect1_dropShadow_29_124" result="shape"/>
</filter>
<filter id="filter11_d_29_124" x="320.35" y="180.32" width="52.3053" height="18.86" filterUnits="userSpaceOnUse" color-interpolation-filters="sRGB">
<feFlood flood-opacity="0" result="BackgroundImageFix"/>
<feColorMatrix in="SourceAlpha" type="matrix" values="0 0 0 0 0 0 0 0 0 0 0 0 0 0 0 0 0 0 127 0" result="hardAlpha"/>
<feOffset dy="1"/>
<feGaussianBlur stdDeviation="2"/>
<feColorMatrix type="matrix" values="0 0 0 0 0.960784 0 0 0 0 0.960784 0 0 0 0 0.960784 0 0 0 0.169 0"/>
<feBlend mode="normal" in2="BackgroundImageFix" result="effect1_dropShadow_29_124"/>
<feBlend mode="normal" in="SourceGraphic" in2="effect1_dropShadow_29_124" result="shape"/>
</filter>
<filter id="filter12_d_29_124" x="64.731" y="214.488" width="114.859" height="23.232" filterUnits="userSpaceOnUse" color-interpolation-filters="sRGB">
<feFlood flood-opacity="0" result="BackgroundImageFix"/>
<feColorMatrix in="SourceAlpha" type="matrix" values="0 0 0 0 0 0 0 0 0 0 0 0 0 0 0 0 0 0 127 0" result="hardAlpha"/>
<feOffset dy="1"/>
<feGaussianBlur stdDeviation="2"/>
<feColorMatrix type="matrix" values="0 0 0 0 0.960784 0 0 0 0 0.960784 0 0 0 0 0.960784 0 0 0 0.169 0"/>
<feBlend mode="normal" in2="BackgroundImageFix" result="effect1_dropShadow_29_124"/>
<feBlend mode="normal" in="SourceGraphic" in2="effect1_dropShadow_29_124" result="shape"/>
</filter>
<filter id="filter13_d_29_124" x="320.35" y="215.32" width="52.3053" height="18.86" filterUnits="userSpaceOnUse" color-interpolation-filters="sRGB">
<feFlood flood-opacity="0" result="BackgroundImageFix"/>
<feColorMatrix in="SourceAlpha" type="matrix" values="0 0 0 0 0 0 0 0 0 0 0 0 0 0 0 0 0 0 127 0" result="hardAlpha"/>
<feOffset dy="1"/>
<feGaussianBlur stdDeviation="2"/>
<feColorMatrix type="matrix" values="0 0 0 0 0.960784 0 0 0 0 0.960784 0 0 0 0 0.960784 0 0 0 0.169 0"/>
<feBlend mode="normal" in2="BackgroundImageFix" result="effect1_dropShadow_29_124"/>
<feBlend mode="normal" in="SourceGraphic" in2="effect1_dropShadow_29_124" result="shape"/>
</filter>
<filter id="filter14_d_29_124" x="65.53" y="249.59" width="166.645" height="20.614" filterUnits="userSpaceOnUse" color-interpolation-filters="sRGB">
<feFlood flood-opacity="0" result="BackgroundImageFix"/>
<feColorMatrix in="SourceAlpha" type="matrix" values="0 0 0 0 0 0 0 0 0 0 0 0 0 0 0 0 0 0 127 0" result="hardAlpha"/>
<feOffset dy="1"/>
<feGaussianBlur stdDeviation="2"/>
<feColorMatrix type="matrix" values="0 0 0 0 0.960784 0 0 0 0 0.960784 0 0 0 0 0.960784 0 0 0 0.169 0"/>
<feBlend mode="normal" in2="BackgroundImageFix" result="effect1_dropShadow_29_124"/>
<feBlend mode="normal" in="SourceGraphic" in2="effect1_dropShadow_29_124" result="shape"/>
</filter>
<filter id="filter15_d_29_124" x="320.35" y="250.32" width="52.3053" height="18.86" filterUnits="userSpaceOnUse" color-interpolation-filters="sRGB">
<feFlood flood-opacity="0" result="BackgroundImageFix"/>
<feColorMatrix in="SourceAlpha" type="matrix" values="0 0 0 0 0 0 0 0 0 0 0 0 0 0 0 0 0 0 127 0" result="hardAlpha"/>
<feOffset dy="1"/>
<feGaussianBlur stdDeviation="2"/>
<feColorMatrix type="matrix" values="0 0 0 0 0.960784 0 0 0 0 0.960784 0 0 0 0 0.960784 0 0 0 0.169 0"/>
<feBlend mode="normal" in2="BackgroundImageFix" result="effect1_dropShadow_29_124"/>
<feBlend mode="normal" in="SourceGraphic" in2="effect1_dropShadow_29_124" result="shape"/>
</filter>
<filter id="filter16_d_29_124" x="451.51" y="179.692" width="86.2153" height="20.461" filterUnits="userSpaceOnUse" color-interpolation-filters="sRGB">
<feFlood flood-opacity="0" result="BackgroundImageFix"/>
<feColorMatrix in="SourceAlpha" type="matrix" values="0 0 0 0 0 0 0 0 0 0 0 0 0 0 0 0 0 0 127 0" result="hardAlpha"/>
<feOffset dy="1"/>
<feGaussianBlur stdDeviation="2"/>
<feColorMatrix type="matrix" values="0 0 0 0 0.960784 0 0 0 0 0.960784 0 0 0 0 0.960784 0 0 0 0.169 0"/>
<feBlend mode="normal" in2="BackgroundImageFix" result="effect1_dropShadow_29_124"/>
<feBlend mode="normal" in="SourceGraphic" in2="effect1_dropShadow_29_124" result="shape"/>
</filter>
<filter id="filter17_d_29_124" x="707.35" y="180.32" width="52.3054" height="18.86" filterUnits="userSpaceOnUse" color-interpolation-filters="sRGB">
<feFlood flood-opacity="0" result="BackgroundImageFix"/>
<feColorMatrix in="SourceAlpha" type="matrix" values="0 0 0 0 0 0 0 0 0 0 0 0 0 0 0 0 0 0 127 0" result="hardAlpha"/>
<feOffset dy="1"/>
<feGaussianBlur stdDeviation="2"/>
<feColorMatrix type="matrix" values="0 0 0 0 0.960784 0 0 0 0 0.960784 0 0 0 0 0.960784 0 0 0 0.169 0"/>
<feBlend mode="normal" in2="BackgroundImageFix" result="effect1_dropShadow_29_124"/>
<feBlend mode="normal" in="SourceGraphic" in2="effect1_dropShadow_29_124" result="shape"/>
</filter>
<filter id="filter18_d_29_124" x="453.53" y="214.59" width="120.662" height="23.164" filterUnits="userSpaceOnUse" color-interpolation-filters="sRGB">
<feFlood flood-opacity="0" result="BackgroundImageFix"/>
<feColorMatrix in="SourceAlpha" type="matrix" values="0 0 0 0 0 0 0 0 0 0 0 0 0 0 0 0 0 0 127 0" result="hardAlpha"/>
<feOffset dy="1"/>
<feGaussianBlur stdDeviation="2"/>
<feColorMatrix type="matrix" values="0 0 0 0 0.960784 0 0 0 0 0.960784 0 0 0 0 0.960784 0 0 0 0.169 0"/>
<feBlend mode="normal" in2="BackgroundImageFix" result="effect1_dropShadow_29_124"/>
<feBlend mode="normal" in="SourceGraphic" in2="effect1_dropShadow_29_124" result="shape"/>
</filter>
<filter id="filter19_d_29_124" x="708.35" y="215.32" width="52.3054" height="18.86" filterUnits="userSpaceOnUse" color-interpolation-filters="sRGB">
<feFlood flood-opacity="0" result="BackgroundImageFix"/>
<feColorMatrix in="SourceAlpha" type="matrix" values="0 0 0 0 0 0 0 0 0 0 0 0 0 0 0 0 0 0 127 0" result="hardAlpha"/>
<feOffset dy="1"/>
<feGaussianBlur stdDeviation="2"/>
<feColorMatrix type="matrix" values="0 0 0 0 0.960784 0 0 0 0 0.960784 0 0 0 0 0.960784 0 0 0 0.169 0"/>
<feBlend mode="normal" in2="BackgroundImageFix" result="effect1_dropShadow_29_124"/>
<feBlend mode="normal" in="SourceGraphic" in2="effect1_dropShadow_29_124" result="shape"/>
</filter>
<filter id="filter20_d_29_124" x="29.5" y="277.5" width="35" height="35" filterUnits="userSpaceOnUse" color-interpolation-filters="sRGB">
<feFlood flood-opacity="0" result="BackgroundImageFix"/>
<feColorMatrix in="SourceAlpha" type="matrix" values="0 0 0 0 0 0 0 0 0 0 0 0 0 0 0 0 0 0 127 0" result="hardAlpha"/>
<feOffset/>
<feGaussianBlur stdDeviation="2.75"/>
<feColorMatrix type="matrix" values="0 0 0 0 0.0470588 0 0 0 0 0.929412 0 0 0 0 0.968627 0 0 0 1 0"/>
<feBlend mode="normal" in2="BackgroundImageFix" result="effect1_dropShadow_29_124"/>
<feBlend mode="normal" in="SourceGraphic" in2="effect1_dropShadow_29_124" result="shape"/>
</filter>
<filter id="filter21_d_29_124" x="65.003" y="285.59" width="121.659" height="20.614" filterUnits="userSpaceOnUse" color-interpolation-filters="sRGB">
<feFlood flood-opacity="0" result="BackgroundImageFix"/>
<feColorMatrix in="SourceAlpha" type="matrix" values="0 0 0 0 0 0 0 0 0 0 0 0 0 0 0 0 0 0 127 0" result="hardAlpha"/>
<feOffset dy="1"/>
<feGaussianBlur stdDeviation="2"/>
<feColorMatrix type="matrix" values="0 0 0 0 0.960784 0 0 0 0 0.960784 0 0 0 0 0.960784 0 0 0 0.169 0"/>
<feBlend mode="normal" in2="BackgroundImageFix" result="effect1_dropShadow_29_124"/>
<feBlend mode="normal" in="SourceGraphic" in2="effect1_dropShadow_29_124" result="shape"/>
</filter>
<filter id="filter22_d_29_124" x="319.44" y="286.608" width="55.259" height="19.584" filterUnits="userSpaceOnUse" color-interpolation-filters="sRGB">
<feFlood flood-opacity="0" result="BackgroundImageFix"/>
<feColorMatrix in="SourceAlpha" type="matrix" values="0 0 0 0 0 0 0 0 0 0 0 0 0 0 0 0 0 0 127 0" result="hardAlpha"/>
<feOffset dy="1"/>
<feGaussianBlur stdDeviation="2"/>
<feColorMatrix type="matrix" values="0 0 0 0 0.960784 0 0 0 0 0.960784 0 0 0 0 0.960784 0 0 0 0.169 0"/>
<feBlend mode="normal" in2="BackgroundImageFix" result="effect1_dropShadow_29_124"/>
<feBlend mode="normal" in="SourceGraphic" in2="effect1_dropShadow_29_124" result="shape"/>
</filter>
<filter id="filter23_d_29_124" x="29.5" y="312.5" width="35" height="35" filterUnits="userSpaceOnUse" color-interpolation-filters="sRGB">
<feFlood flood-opacity="0" result="BackgroundImageFix"/>
<feColorMatrix in="SourceAlpha" type="matrix" values="0 0 0 0 0 0 0 0 0 0 0 0 0 0 0 0 0 0 127 0" result="hardAlpha"/>
<feOffset/>
<feGaussianBlur stdDeviation="2.75"/>
<feColorMatrix type="matrix" values="0 0 0 0 0.0470588 0 0 0 0 0.929412 0 0 0 0 0.968627 0 0 0 1 0"/>
<feBlend mode="normal" in2="BackgroundImageFix" result="effect1_dropShadow_29_124"/>
<feBlend mode="normal" in="SourceGraphic" in2="effect1_dropShadow_29_124" result="shape"/>
</filter>
<filter id="filter24_d_29_124" x="65.003" y="320.896" width="119.815" height="20.308" filterUnits="userSpaceOnUse" color-interpolation-filters="sRGB">
<feFlood flood-opacity="0" result="BackgroundImageFix"/>
<feColorMatrix in="SourceAlpha" type="matrix" values="0 0 0 0 0 0 0 0 0 0 0 0 0 0 0 0 0 0 127 0" result="hardAlpha"/>
<feOffset dy="1"/>
<feGaussianBlur stdDeviation="2"/>
<feColorMatrix type="matrix" values="0 0 0 0 0.960784 0 0 0 0 0.960784 0 0 0 0 0.960784 0 0 0 0.169 0"/>
<feBlend mode="normal" in2="BackgroundImageFix" result="effect1_dropShadow_29_124"/>
<feBlend mode="normal" in="SourceGraphic" in2="effect1_dropShadow_29_124" result="shape"/>
</filter>
<filter id="filter25_d_29_124" x="319.44" y="321.608" width="55.259" height="19.584" filterUnits="userSpaceOnUse" color-interpolation-filters="sRGB">
<feFlood flood-opacity="0" result="BackgroundImageFix"/>
<feColorMatrix in="SourceAlpha" type="matrix" values="0 0 0 0 0 0 0 0 0 0 0 0 0 0 0 0 0 0 127 0" result="hardAlpha"/>
<feOffset dy="1"/>
<feGaussianBlur stdDeviation="2"/>
<feColorMatrix type="matrix" values="0 0 0 0 0.960784 0 0 0 0 0.960784 0 0 0 0 0.960784 0 0 0 0.169 0"/>
<feBlend mode="normal" in2="BackgroundImageFix" result="effect1_dropShadow_29_124"/>
<feBlend mode="normal" in="SourceGraphic" in2="effect1_dropShadow_29_124" result="shape"/>
</filter>
</defs>
</svg>
